<svg  viewBox="0 0 28 28" fill="none" xmlns="http://www.w3.org/2000/svg">
    <path
        d="M24.4635 1.75H3.53646C2.55135 1.75 1.75 2.55135 1.75 3.53646V6.08854C1.75 7.07365 2.55135 7.875 3.53646 7.875H24.4635C25.4486 7.875 26.25 7.07365 26.25 6.08854V3.53646C26.25 2.55135 25.4486 1.75 24.4635 1.75Z"
        fill="currentColor" />
    <path
        d="M3.53646 26.2474H11.1927C12.1778 26.2474 12.9792 25.446 12.9792 24.4609V11.7005C12.9792 10.7154 12.1778 9.91406 11.1927 9.91406H3.53646C2.55135 9.91406 1.75 10.7154 1.75 11.7005V24.4609C1.75 25.446 2.55135 26.2474 3.53646 26.2474Z"
        fill="currentColor" />
    <path
        d="M24.4622 9.91406H16.806C15.8209 9.91406 15.0195 10.7154 15.0195 11.7005V15.2734C15.0195 16.2585 15.8209 17.0599 16.806 17.0599H24.4622C25.4473 17.0599 26.2487 16.2585 26.2487 15.2734V11.7005C26.2487 10.7154 25.4473 9.91406 24.4622 9.91406Z"
        fill="currentColor" />
    <path
        d="M24.4622 19.1016H16.806C15.8209 19.1016 15.0195 19.9029 15.0195 20.888V24.4609C15.0195 25.446 15.8209 26.2474 16.806 26.2474H24.4622C25.4473 26.2474 26.2487 25.446 26.2487 24.4609V20.888C26.2487 19.9029 25.4473 19.1016 24.4622 19.1016Z"
        fill="currentColor" />
</svg>