<svg width="16" height="16" viewBox="0 0 16 16" fill="none" xmlns="http://www.w3.org/2000/svg">
<g clip-path="url(#clip0_5086_371817)">
<path d="M6.89996 2.20699V13.7937C6.89996 14.8937 6.43245 15.3337 5.2637 15.3337H2.30288C1.13413 15.3337 0.666626 14.8937 0.666626 13.7937V2.20699C0.666626 1.10699 1.13413 0.666992 2.30288 0.666992H5.2637C6.43245 0.666992 6.89996 1.10699 6.89996 2.20699ZM13.697 0.666992H10.7362C9.56747 0.666992 9.09996 1.10699 9.09996 2.20699V8.66033C9.09996 9.76033 9.56747 10.2003 10.7362 10.2003H13.697C14.8658 10.2003 15.3333 9.76033 15.3333 8.66033V2.20699C15.3333 1.10699 14.8658 0.666992 13.697 0.666992Z" fill="currentColor"/>
</g>
<defs>
<clipPath id="clip0_5086_371817">
<rect width="16" height="16" fill="white"/>
</clipPath>
</defs>
</svg>