<svg width="38" height="66" viewBox="0 0 38 66" fill="none" xmlns="http://www.w3.org/2000/svg">
<path d="M35.3305 2.7793H3.74219V35.6671H35.3305V2.7793Z" fill="#F01616"/>
<path d="M33.5528 2.7793H1.96484V35.6671H33.5528V2.7793Z" fill="#FF6A6A"/>
<path d="M30.402 2.7793H5.11523V32.4828H30.402V2.7793Z" fill="white"/>
<path d="M34.0516 0.144531C34.7791 0.144531 35.3691 0.734225 35.3691 1.46209C35.3691 2.19011 34.7793 2.77997 34.0516 2.77997H1.46437C0.736674 2.77997 0.146484 2.19028 0.146484 1.46209C0.146484 0.73439 0.736508 0.144531 1.46437 0.144531L34.0516 0.144531Z" fill="#353B38"/>
<path d="M35.8291 0.144531C36.5566 0.144531 37.1468 0.734225 37.1468 1.46209C37.1468 2.19011 36.5568 2.77997 35.8291 2.77997H33.5519C32.8242 2.77997 32.2344 2.19028 32.2344 1.46209C32.2344 0.73439 32.8241 0.144531 33.5519 0.144531L35.8291 0.144531Z" fill="#181B1A"/>
<path d="M34.0516 35.668C34.7791 35.668 35.3691 36.258 35.3691 36.9859C35.3691 37.7134 34.7793 38.3036 34.0516 38.3036H1.46437C0.736674 38.3036 0.146484 37.7136 0.146484 36.9859C0.146484 36.2582 0.736508 35.668 1.46437 35.668H34.0516Z" fill="#353B38"/>
<path d="M35.8291 35.668C36.5566 35.668 37.1468 36.258 37.1468 36.9859C37.1468 37.7134 36.5568 38.3036 35.8291 38.3036H33.5519C32.8242 38.3036 32.2344 37.7136 32.2344 36.9859C32.2344 36.2582 32.8241 35.668 33.5519 35.668H35.8291Z" fill="#181B1A"/>
<path d="M27.8895 7.76562H7.75977V9.3415H27.8895V7.76562Z" fill="#5E6B66"/>
<path d="M22.1572 11.3652H7.75977V12.9411H22.1572V11.3652Z" fill="#5E6B66"/>
<path d="M27.8895 14.9648H7.75977V16.5404H27.8895V14.9648Z" fill="#5E6B66"/>
<path d="M22.1572 18.5645H7.75977V20.14H22.1572V18.5645Z" fill="#5E6B66"/>
<path d="M27.8895 22.1641H7.75977V23.7399H27.8895V22.1641Z" fill="#5E6B66"/>
<path d="M22.1572 25.7637H7.75977V27.3397H22.1572V25.7637Z" fill="#5E6B66"/>
<path d="M21.0546 65.1432C20.4475 65.1432 19.864 64.8069 19.5764 64.2263L16.6618 58.3407C16.2579 57.5249 16.5915 56.5364 17.4073 56.1328C18.2225 55.7283 19.2115 56.0623 19.6155 56.8781L22.5301 62.7636C22.9341 63.5794 22.6004 64.5679 21.7849 64.9718C21.5496 65.0883 21.3 65.1432 21.0546 65.1432Z" fill="#353B38"/>
<path d="M28.2727 62.1055L19.8119 56.7212V38.3027H16.4665V56.7212L8.00564 62.1055C7.23778 62.5942 7.01136 63.6128 7.50007 64.3805C7.81426 64.8741 8.34726 65.144 8.89183 65.144C9.19461 65.144 9.50086 65.0606 9.77505 64.886L18.139 59.5634L26.5031 64.886C26.7772 65.0606 27.0836 65.144 27.3864 65.144C27.9308 65.144 28.4641 64.8741 28.7781 64.3805C29.2668 63.6128 29.0406 62.5942 28.2727 62.1055Z" fill="#181B1A"/>
</svg>
