<svg  viewBox="0 0 16 16" fill="none" xmlns="http://www.w3.org/2000/svg">
    <g clip-path="url(#clip0_2549_181930)">
        <path
            d="M4.27639 6.19058L7.45075 0.691463C7.49874 0.617861 7.56114 0.557061 7.63313 0.509064C7.93393 0.307465 8.34033 0.389066 8.54193 0.691463L11.7163 6.19058C11.7723 6.28497 11.8011 6.39377 11.8011 6.50417C11.8011 6.85297 11.5195 7.13456 11.1707 7.13456H4.82038C4.70999 7.13456 4.60119 7.10576 4.50679 7.04977C4.20439 6.87536 4.102 6.49138 4.27639 6.19058Z"
            fill="currentColor" />
        <path
            d="M15.5021 10.0429V14.6764C15.5021 15.0252 15.2189 15.3068 14.8717 15.3068H10.2382C9.89097 15.3068 9.60938 15.0252 9.60938 14.6764V10.0429C9.60938 9.69566 9.89097 9.41406 10.2382 9.41406H14.8717C15.2189 9.41406 15.5021 9.69566 15.5021 10.0429Z"
            fill="currentColor" />
        <path
            d="M6.9888 12.3557C6.9888 14.1477 5.53762 15.6005 3.74725 15.6021C1.95367 15.6037 0.499298 14.1525 0.496095 12.3589C0.494494 10.567 1.94567 9.11258 3.73925 9.10938C5.53283 9.10938 6.9872 10.5622 6.9888 12.3557Z"
            fill="currentColor" />
    </g>
    <defs>
        <clipPath id="clip0_2549_181930">
            <rect width="16" height="16" fill="white" />
        </clipPath>
    </defs>
</svg>