<svg width="18" height="18" viewBox="0 0 18 18" fill="none" xmlns="http://www.w3.org/2000/svg">
<g clip-path="url(#clip0_6218_127683)">
<path d="M16.5 16.5H1.5" stroke="#181B1A" stroke-width="1.31" stroke-linecap="round" stroke-linejoin="round"/>
<path d="M2.86328 16.5V10.1441C2.86328 9.09099 3.71698 8.23729 4.77006 8.23729H13.4141C14.4672 8.23729 15.3209 9.09099 15.3209 10.1441V16.5" stroke="#181B1A" stroke-width="1.31" stroke-linecap="round" stroke-linejoin="round"/>
<path d="M9 5.59931V8.07812" stroke="#181B1A" stroke-width="1.31" stroke-linecap="round" stroke-linejoin="round"/>
<path d="M10.1791 4.07256C10.1791 4.73994 9.60995 5.34375 8.90791 5.34375C8.20586 5.34375 7.63672 4.77461 7.63672 4.07256C7.63672 2.73782 9.2257 1.49841 9.2257 1.49841C9.2257 2.9285 10.1791 3.21451 10.1791 4.07256Z" stroke="#181B1A" stroke-width="1.31" stroke-linecap="round" stroke-linejoin="round"/>
<path d="M9.0919 10.459C9.0919 11.3014 8.40063 11.9844 7.54789 11.9844C6.69518 11.9844 6.00391 11.3014 6.00391 10.459" stroke="#181B1A" stroke-width="1.31" stroke-linecap="round" stroke-linejoin="round"/>
<path d="M5.95128 10.459C5.95128 11.3014 5.26001 11.9844 4.4073 11.9844C3.55455 11.9844 2.86328 11.3014 2.86328 10.459" stroke="#181B1A" stroke-width="1.31" stroke-linecap="round" stroke-linejoin="round"/>
<path d="M15.3204 10.459C15.3204 11.3014 14.6291 11.9844 13.7764 11.9844C12.9237 11.9844 12.2324 11.3014 12.2324 10.459" stroke="#181B1A" stroke-width="1.31" stroke-linecap="round" stroke-linejoin="round"/>
<path d="M12.1798 10.459C12.1798 11.3014 11.4885 11.9844 10.6358 11.9844C9.78307 11.9844 9.0918 11.3014 9.0918 10.459" stroke="#181B1A" stroke-width="1.31" stroke-linecap="round" stroke-linejoin="round"/>
</g>
<defs>
<clipPath id="clip0_6218_127683">
<rect width="18" height="18" fill="white"/>
</clipPath>
</defs>
</svg>
