<svg width="62" height="66" viewBox="0 0 62 66" fill="none" xmlns="http://www.w3.org/2000/svg">
<path d="M61.8687 14.2453C61.8687 11.6827 59.7719 9.58594 57.2094 9.58594H10.6146C8.05188 9.58594 5.95508 11.6827 5.95508 14.2453V60.8401C5.95508 63.4028 8.05188 65.4998 10.6146 65.4998H57.2094C59.7721 65.4998 61.8687 63.4028 61.8687 60.8401V14.2453Z" fill="#B8DF91"/>
<path d="M56.0445 14.2453C56.0445 11.6827 53.9477 9.58594 51.385 9.58594H4.79021C2.22766 9.58594 0.130859 11.6827 0.130859 14.2453V60.8401C0.130859 63.4028 2.22766 65.4998 4.79021 65.4998H51.385C53.9477 65.4998 56.0445 63.4028 56.0445 60.8401V14.2453Z" fill="#CEFFA3"/>
<path d="M49.0543 16.5762H7.11914V58.5116H49.0543V16.5762Z" fill="#FBFBFB"/>
<path d="M49.0543 16.5762H7.11914V26.827H49.0543V16.5762Z" fill="#C70000"/>
<path d="M44.6288 16.5762H2.69336V58.5116H44.6288V16.5762Z" fill="white"/>
<path d="M44.6288 16.5762H2.69336V26.827H44.6288V16.5762Z" fill="#F01616"/>
<path d="M16.446 51.0735C15.8502 50.6432 15.4199 49.9811 15.4199 49.1205C15.4199 47.7966 16.5123 46.6711 17.8362 46.6711C18.432 46.6711 18.8293 46.8366 19.2265 47.1345C20.6496 48.1606 22.0068 48.6241 23.6286 48.6241C25.7801 48.6241 27.3689 47.4656 27.3689 45.4135V45.3472C27.3689 43.3614 25.6808 42.2029 23.2646 42.2029C21.3117 42.2029 20.4511 42.7989 19.756 42.7989C19.0278 42.7989 18.4651 42.501 17.439 41.7726C16.7441 41.276 16.446 40.5811 16.5123 39.7207L16.9756 31.8759C17.042 30.6514 18.0019 29.6914 19.2265 29.6914H29.2886C30.5134 29.6914 31.5395 30.7175 31.5395 31.9423C31.5395 33.1668 30.5134 34.1597 29.2886 34.1597H21.4771L21.2123 38.1649C22.1392 37.9332 22.9666 37.7677 24.2575 37.7677C28.8253 37.7677 32.3668 39.952 32.3668 45.1821V45.2484C32.3668 50.1468 28.8253 53.2582 23.7278 53.2582C20.5172 53.258 18.2994 52.3974 16.446 51.0735Z" fill="#181B1A"/>
<path d="M15.6044 0.5C8.79754 0.5 3.25977 6.03758 3.25977 12.8448C3.25977 16.1418 4.54365 19.2422 6.87523 21.5738C7.33017 22.0289 7.92633 22.2563 8.5229 22.2563C9.11887 22.2563 9.71523 22.0287 10.17 21.574C11.0798 20.6643 11.08 19.1893 10.1704 18.2794C8.71862 16.8275 7.91932 14.8975 7.91932 12.8448C7.91932 8.60715 11.3669 5.15976 15.6044 5.15976C18.6776 5.15976 21.3339 6.9735 22.5625 9.58634H27.5095C26.0762 4.35585 21.2834 0.5 15.6044 0.5Z" fill="#353B38"/>
<path d="M30.4677 0.5C23.6608 0.5 18.123 6.03758 18.123 12.8448C18.123 16.1418 19.4071 19.2422 21.7385 21.5738C22.1934 22.0289 22.7896 22.2563 23.3862 22.2563C23.9821 22.2563 24.5785 22.0287 25.0335 21.574C25.9433 20.6643 25.9435 19.1893 25.0339 18.2794C23.5821 16.8275 22.7828 14.8975 22.7828 12.8448C22.7828 8.60715 26.2304 5.15976 30.4681 5.15976C33.541 5.15976 36.1976 6.9735 37.4261 9.58634H42.373C40.9392 4.35585 36.1465 0.5 30.4677 0.5Z" fill="#4C5652"/>
<path d="M45.3309 0.5C38.5241 0.5 32.9863 6.03758 32.9863 12.8448C32.9863 16.1418 34.2704 19.2422 36.6018 21.5738C37.0567 22.0289 37.6529 22.2563 38.2493 22.2563C38.8454 22.2563 39.4418 22.0287 39.8965 21.574C40.8064 20.6643 40.8066 19.1893 39.8967 18.2794C38.4452 16.8275 37.6457 14.8975 37.6457 12.8448C37.6457 8.60715 41.0933 5.15976 45.3309 5.15976C48.4041 5.15976 51.0604 6.9735 52.289 9.58634H57.2358C55.8025 4.35585 51.01 0.5 45.3309 0.5Z" fill="#353B38"/>
</svg>
