<svg width="25" height="24" viewBox="0 0 25 24" fill="none" xmlns="http://www.w3.org/2000/svg">
<g clip-path="url(#clip0_5770_7114)">
<path d="M12.5001 4.8C13.8256 4.8 14.9001 3.72548 14.9001 2.4C14.9001 1.07452 13.8256 0 12.5001 0C11.1746 0 10.1001 1.07452 10.1001 2.4C10.1001 3.72548 11.1746 4.8 12.5001 4.8Z" fill="#697D67"/>
<path d="M7.40937 3.51562C8.34687 4.45312 8.34687 5.97187 7.40937 6.90937C6.47187 7.84687 4.95312 7.84687 4.01562 6.90937C3.07812 5.97187 3.07812 4.45312 4.01562 3.51562C4.95312 2.57812 6.47187 2.57812 7.40937 3.51562Z" fill="#697D67"/>
<path d="M2.9 9.6001C4.22656 9.6001 5.3 10.6735 5.3 12.0001C5.3 13.3267 4.22656 14.4001 2.9 14.4001C1.57344 14.4001 0.5 13.3267 0.5 12.0001C0.5 10.6735 1.57344 9.6001 2.9 9.6001Z" fill="#697D67"/>
<path d="M4.01562 17.0908C4.95312 16.1533 6.47187 16.1533 7.40937 17.0908C8.34687 18.0283 8.34687 19.5471 7.40937 20.4846C6.47187 21.4221 4.95312 21.4221 4.01562 20.4846C3.07812 19.5471 3.07812 18.0283 4.01562 17.0908Z" fill="#697D67"/>
<path d="M10.1001 21.6002C10.1001 20.2736 11.1735 19.2002 12.5001 19.2002C13.8267 19.2002 14.9001 20.2736 14.9001 21.6002C14.9001 22.9268 13.8267 24.0002 12.5001 24.0002C11.1735 24.0002 10.1001 22.9268 10.1001 21.6002Z" fill="#697D67"/>
<path d="M17.5906 20.4846C16.6531 19.5471 16.6531 18.0283 17.5906 17.0908C18.5281 16.1533 20.0468 16.1533 20.9843 17.0908C21.9218 18.0283 21.9218 19.5471 20.9843 20.4846C20.0468 21.4221 18.5281 21.4221 17.5906 20.4846Z" fill="#697D67"/>
<path d="M22.1 14.4001C20.7734 14.4001 19.7 13.3267 19.7 12.0001C19.7 10.6735 20.7734 9.6001 22.1 9.6001C23.4265 9.6001 24.5 10.6735 24.5 12.0001C24.5 13.3267 23.4265 14.4001 22.1 14.4001Z" fill="#697D67"/>
<path d="M20.9843 6.90937C20.0468 7.84687 18.5281 7.84687 17.5906 6.90937C16.6531 5.97187 16.6531 4.45312 17.5906 3.51562C18.5281 2.57812 20.0468 2.57812 20.9843 3.51562C21.9218 4.45312 21.9218 5.97187 20.9843 6.90937Z" fill="#697D67"/>
</g>
<defs>
<clipPath id="clip0_5770_7114">
<rect width="24" height="24" fill="white" transform="translate(0.5)"/>
</clipPath>
</defs>
</svg>
