<svg width="23" height="18" viewBox="0 0 23 18" fill="none" xmlns="http://www.w3.org/2000/svg">
<path d="M18.625 1.50001H11.3177C11.0957 1.50072 10.8786 1.43545 10.6938 1.31251L9.39064 0.441099C8.95913 0.152543 8.45147 -0.00101089 7.93236 5.00834e-06H4.37502C3.67905 0.000749489 3.01181 0.27755 2.51969 0.769672C2.02756 1.26179 1.75076 1.92904 1.75002 2.62501V3.75001H21.25C21.25 2.30251 20.0725 1.50001 18.625 1.50001ZM19.3633 18H3.63674C2.94796 17.9992 2.28709 17.7278 1.79664 17.2442C1.30619 16.7605 1.02547 16.1035 1.01502 15.4149L0.258456 7.69266V7.67954C0.233681 7.37003 0.273234 7.05874 0.374627 6.76527C0.47602 6.47179 0.637058 6.20248 0.847607 5.97427C1.05816 5.74607 1.31366 5.56391 1.59804 5.43926C1.88242 5.31462 2.18952 5.25018 2.50002 5.25H20.5047C20.8151 5.25031 21.1221 5.31484 21.4064 5.43954C21.6907 5.56425 21.946 5.74643 22.1565 5.97462C22.3669 6.20281 22.5279 6.47208 22.6292 6.76549C22.7306 7.0589 22.7701 7.37011 22.7453 7.67954V7.69266L21.985 15.4149C21.9746 16.1035 21.6938 16.7605 21.2034 17.2442C20.7129 17.7278 20.0521 17.9992 19.3633 18Z" fill="#697D67"/>
</svg>
