<svg width="14" height="13" viewBox="0 0 14 13" fill="none" xmlns="http://www.w3.org/2000/svg">
<path d="M12.5564 3.27912C11.9826 2.29608 11.2042 1.51773 10.2211 0.943949C9.23788 0.370193 8.16453 0.083374 7.00025 0.083374C5.83608 0.083374 4.7624 0.370193 3.77933 0.943949C2.79619 1.51765 2.01785 2.29599 1.44404 3.27912C0.870193 4.26232 0.583374 5.33599 0.583374 6.50007C0.583374 7.6642 0.870281 8.73771 1.44395 9.72096C2.01773 10.704 2.79608 11.4823 3.77921 12.0562C4.7624 12.6299 5.83599 12.9168 7.00013 12.9168C8.16426 12.9168 9.23797 12.6299 10.2211 12.0562C11.2042 11.4826 11.9825 10.704 12.5562 9.72096C13.1299 8.73779 13.4167 7.66415 13.4167 6.50007C13.4167 5.33588 13.1299 4.26217 12.5564 3.27912ZM10.9354 8.78096C10.5288 9.47719 9.97739 10.0286 9.28116 10.4354C8.58494 10.842 7.82465 11.0451 7.00016 11.0451C6.17587 11.0451 5.41552 10.842 4.71921 10.4354C4.02298 10.0286 3.47159 9.47719 3.06499 8.78096C2.6583 8.08473 2.45503 7.32442 2.45503 6.50007C2.45503 5.67567 2.65839 4.91535 3.06499 4.21912C3.4715 3.5229 4.02304 2.97138 4.71921 2.56481C5.41544 2.15818 6.17575 1.95494 7.00016 1.95494C7.82462 1.95494 8.58494 2.15818 9.28116 2.56481C9.97739 2.97141 10.5288 3.5229 10.9354 4.21912C11.342 4.91535 11.5452 5.67567 11.5452 6.50007C11.5452 7.32442 11.342 8.08473 10.9354 8.78096Z" fill="#5E6B66"/>
<path d="M7.0001 4.36108C6.40964 4.36108 5.90559 4.57 5.48778 4.98766C5.07012 5.40547 4.86121 5.90952 4.86121 6.49998C4.86121 7.09039 5.07001 7.59453 5.48778 8.01216C5.90559 8.42996 6.40973 8.63888 7.0001 8.63888C7.59063 8.63888 8.09477 8.42996 8.51237 8.01216C8.93009 7.59453 9.139 7.09039 9.139 6.49998C9.139 5.90952 8.93009 5.40547 8.51237 4.98766C8.09477 4.56997 7.59063 4.36108 7.0001 4.36108Z" fill="#5E6B66"/>
</svg>
