<svg width="24" height="24" viewBox="0 0 24 24" fill="none" xmlns="http://www.w3.org/2000/svg">
<path d="M12.75 15.0215V9.48274L20.5603 5.9329C20.6915 5.87336 20.8028 5.77729 20.8808 5.65617C20.9589 5.53505 21.0004 5.39402 21.0004 5.24993C21.0004 5.10585 20.9589 4.96481 20.8808 4.8437C20.8028 4.72258 20.6915 4.6265 20.5603 4.56696L12.3103 0.816963C12.1961 0.765036 12.0706 0.742612 11.9454 0.751744C11.8203 0.760877 11.6994 0.801274 11.5939 0.869235C11.4884 0.937196 11.4016 1.03055 11.3415 1.14074C11.2814 1.25093 11.25 1.37443 11.25 1.49993V15.0215C11.5 15.0074 11.75 15.0002 12 14.9999C12.25 14.9996 12.5 15.0068 12.75 15.0215Z" fill="#697D67"/>
<path d="M21.7186 21.4453C21.3174 19.4367 20.0728 17.7544 18.1196 16.5797C16.5961 15.6633 14.7132 15.1125 12.75 15V18.7383C12.75 18.9372 12.671 19.128 12.5304 19.2686C12.3897 19.4093 12.1989 19.4883 12 19.4883C11.8011 19.4883 11.6104 19.4093 11.4697 19.2686C11.329 19.128 11.25 18.9372 11.25 18.7383V15C9.28691 15.1125 7.40394 15.6633 5.8805 16.5797C3.92722 17.7544 2.68269 19.4367 2.28144 21.4453C2.23457 21.666 2.23734 21.8944 2.28955 22.114C2.34176 22.3335 2.4421 22.5387 2.58331 22.7147C2.8655 23.0625 3.28128 23.25 3.75003 23.25H20.25C20.7188 23.25 21.135 23.0602 21.4172 22.7147C21.5584 22.5386 21.6586 22.3334 21.7107 22.1139C21.7629 21.8944 21.7656 21.666 21.7186 21.4453Z" fill="#697D67"/>
</svg>
