<svg width="23" height="24" viewBox="0 0 23 24" fill="none" xmlns="http://www.w3.org/2000/svg">
<path d="M5.9177 9.28831L10.6792 1.03964C10.7512 0.929233 10.8448 0.838033 10.9528 0.766037C11.404 0.463639 12.0136 0.58604 12.316 1.03964L17.0775 9.28831C17.1615 9.4299 17.2047 9.5931 17.2047 9.75869C17.2047 10.2819 16.7823 10.7043 16.2591 10.7043H6.73369C6.56809 10.7043 6.4049 10.6611 6.26329 10.5771C5.80969 10.3155 5.65611 9.73951 5.9177 9.28831Z" fill="#697D67"/>
<path d="M22.7534 15.0555V22.0058C22.7534 22.529 22.3286 22.9514 21.8079 22.9514H14.8576C14.3368 22.9514 13.9144 22.529 13.9144 22.0058V15.0555C13.9144 14.5347 14.3368 14.1123 14.8576 14.1123H21.8079C22.3286 14.1123 22.7534 14.5347 22.7534 15.0555Z" fill="#697D67"/>
<path d="M9.98564 18.5307C9.98564 21.2186 7.80887 23.3978 5.12331 23.4002C2.43295 23.4026 0.251389 21.2258 0.246584 18.5355C0.244182 15.8475 2.42095 13.6659 5.11132 13.6611C7.80168 13.6611 9.98324 15.8403 9.98564 18.5307Z" fill="#697D67"/>
</svg>
