<svg width="16" height="14" viewBox="0 0 16 14" fill="none" xmlns="http://www.w3.org/2000/svg">
<path d="M14.5935 7.45272C14.7766 7.29579 14.8682 7.21732 14.9017 7.12394C14.9311 7.04199 14.9311 6.95234 14.9017 6.87039C14.8682 6.77702 14.7766 6.69855 14.5935 6.54161L8.24047 1.09615C7.9253 0.825999 7.76772 0.690925 7.6343 0.687616C7.51835 0.684739 7.40759 0.73568 7.33432 0.825589C7.25 0.929041 7.25 1.13659 7.25 1.5517V4.77314C5.64899 5.05323 4.1837 5.86448 3.09478 7.08257C1.90762 8.41055 1.25093 10.1291 1.25 11.9104V12.3694C2.03701 11.4213 3.01963 10.6546 4.13057 10.1216C5.11002 9.65174 6.16881 9.37341 7.25 9.30006V12.4426C7.25 12.8577 7.25 13.0653 7.33432 13.1687C7.40759 13.2587 7.51835 13.3096 7.6343 13.3067C7.76772 13.3034 7.9253 13.1683 8.24047 12.8982L14.5935 7.45272Z" stroke="#181B1A" stroke-width="1.31" stroke-linecap="round" stroke-linejoin="round"/>
</svg>
