<svg width="15" height="12" viewBox="0 0 15 12" fill="none" xmlns="http://www.w3.org/2000/svg">
<path d="M0.833293 3.59115H4.83329C5.20146 3.59115 5.49996 3.29297 5.49996 2.92448V0.924479C5.49996 0.55599 5.20146 0.257812 4.83329 0.257812H0.833293C0.465129 0.257812 0.166626 0.55599 0.166626 0.924479V2.92448C0.166626 3.29297 0.465129 3.59115 0.833293 3.59115Z" fill="currentColor"/>
<path d="M11.5 6.92448V4.92448C11.5 4.55599 11.2015 4.25781 10.8333 4.25781H0.833293C0.465129 4.25781 0.166626 4.55599 0.166626 4.92448V6.92448C0.166626 7.29297 0.465129 7.59115 0.833293 7.59115H10.8333C11.2015 7.59115 11.5 7.29297 11.5 6.92448Z" fill="currentColor"/>
<path d="M14.1667 8.25781H7.50004C7.13188 8.25781 6.83337 8.55599 6.83337 8.92448V10.9245C6.83337 11.293 7.13188 11.5911 7.50004 11.5911H14.1667C14.5349 11.5911 14.8334 11.293 14.8334 10.9245V8.92448C14.8334 8.55599 14.5349 8.25781 14.1667 8.25781Z" fill="currentColor"/>
</svg>