<svg width="50" height="66" viewBox="0 0 50 66" fill="none" xmlns="http://www.w3.org/2000/svg">
<path d="M49.0663 61.6925C49.0663 63.7872 47.3523 65.501 45.2576 65.501H5.16982C3.07514 65.501 1.36133 63.787 1.36133 61.6925V12.244C1.36133 10.1494 3.07531 8.43555 5.16982 8.43555H45.2575C47.3523 8.43555 49.0661 10.1495 49.0661 12.244V61.6925H49.0663Z" fill="#B8DF91"/>
<path d="M34.095 5.78663H28.4239C28.6834 5.28755 28.8324 4.72169 28.8324 4.1201C28.8326 2.12206 27.2121 0.501953 25.2137 0.501953C23.2152 0.501953 21.5956 2.12206 21.5956 4.1201C21.5956 4.72169 21.7445 5.28772 22.0042 5.78663H16.3331C14.7619 5.78663 13.4766 7.07178 13.4766 8.64305V12.88H36.951V8.64305C36.951 7.07178 35.6655 5.78663 34.095 5.78663ZM25.2137 5.43942C24.4851 5.43942 23.8944 4.8487 23.8944 4.11993C23.8944 3.39167 24.4851 2.80096 25.2137 2.80096C25.9427 2.80096 26.533 3.39167 26.533 4.11993C26.5329 4.8487 25.9425 5.43942 25.2137 5.43942Z" fill="#181B1A"/>
<path d="M48.2402 61.6925C48.2402 63.7872 46.5262 65.501 44.4315 65.501H4.34382C2.24897 65.501 0.535156 63.787 0.535156 61.6925V12.244C0.535156 10.1494 2.24914 8.43555 4.34382 8.43555H44.4315C46.5263 8.43555 48.2402 10.1495 48.2402 12.244V61.6925Z" fill="#B8DF91"/>
<path d="M44.2567 11.7598H4.51953V60.0603H44.2567V11.7598Z" fill="white"/>
<path d="M33.2685 5.78663H27.5976C27.8571 5.28755 28.006 4.72169 28.006 4.1201C28.006 2.12206 26.3863 0.501953 24.3882 0.501953C22.3897 0.501953 20.7696 2.12206 20.7696 4.1201C20.7696 4.72169 20.9185 5.28772 21.178 5.78663H15.507C13.9362 5.78663 12.6504 7.07178 12.6504 8.64305V12.88H36.1252V8.64305C36.125 7.07178 34.8397 5.78663 33.2685 5.78663ZM24.3882 5.43942C23.6589 5.43942 23.0687 4.8487 23.0687 4.11993C23.0687 3.39167 23.6591 2.80096 24.3882 2.80096C25.1168 2.80096 25.7077 3.39167 25.7077 4.11993C25.7074 4.8487 25.1165 5.43942 24.3882 5.43942Z" fill="#0B2226"/>
<path d="M24.3886 1.35938C22.8633 1.35938 21.627 2.59585 21.627 4.12053C21.627 5.6459 22.8633 6.8822 24.3886 6.8822C25.9138 6.8822 27.1498 5.6459 27.1498 4.12053C27.1498 2.59585 25.9135 1.35938 24.3886 1.35938ZM24.3886 5.43984C23.6593 5.43984 23.0691 4.84913 23.0691 4.12036C23.0691 3.3921 23.6595 2.80139 24.3886 2.80139C25.1172 2.80139 25.7081 3.3921 25.7081 4.12036C25.7078 4.84913 25.1169 5.43984 24.3886 5.43984Z" fill="#E2E6E4"/>
<path d="M14.2324 10.4043H34.5449" stroke="#E2E6E4" stroke-width="0.345144" stroke-miterlimit="10" stroke-linecap="round" stroke-linejoin="round"/>
<path d="M18.2734 8.81641H30.5024" stroke="#E2E6E4" stroke-width="0.345144" stroke-miterlimit="10" stroke-linecap="round" stroke-linejoin="round"/>
<path d="M39.9396 18.1309H8.32812V20.0519H39.9396V18.1309Z" fill="#E2E6E4"/>
<path d="M35.3693 22.7012H8.32812V24.6219H35.3693V22.7012Z" fill="#E2E6E4"/>
<path d="M39.9396 27.2715H8.32812V29.1922H39.9396V27.2715Z" fill="#E2E6E4"/>
<path d="M35.3693 31.8418H8.32812V33.7625H35.3693V31.8418Z" fill="#E2E6E4"/>
<path d="M39.9396 36.4121H8.32812V38.333H39.9396V36.4121Z" fill="#E2E6E4"/>
<path d="M35.3693 40.9824H8.32812V42.9031H35.3693V40.9824Z" fill="#E2E6E4"/>
<path d="M39.9396 45.5527H8.32812V47.4736H39.9396V45.5527Z" fill="#E2E6E4"/>
</svg>
