<svg viewBox="0 0 28 28" fill="none" xmlns="http://www.w3.org/2000/svg">
    <path
        d="M23.307 6.30493C23.4826 5.13114 23.1345 3.93869 22.353 3.03347C21.5581 2.11269 20.4056 1.58594 19.1898 1.58594H8.80863C7.59281 1.58594 6.44039 2.11476 5.64647 3.03554C4.86398 3.94181 4.5169 5.13426 4.69356 6.30908C5.11546 9.10771 6.65237 11.699 9.2669 14.0279C6.65133 16.3568 5.11442 18.948 4.69356 21.7466C4.5169 22.9215 4.86502 24.1139 5.64647 25.0202C6.44039 25.942 7.59385 26.4688 8.80863 26.4688H19.1898C20.4056 26.4688 21.5581 25.942 22.353 25.0212C23.1345 24.116 23.4826 22.9235 23.307 21.7508C22.8882 18.9615 21.3492 16.3682 18.7284 14.0268C21.3492 11.6855 22.8882 9.09319 23.307 6.30493ZM20.1573 6.1214C19.1347 8.64317 16.9868 10.7066 15.3678 11.9924L14.6508 12.5637C14.2715 12.8644 13.7363 12.8644 13.357 12.5658L12.6255 11.9862C11.0075 10.7097 8.86474 8.65561 7.84013 6.1214C7.71024 5.80099 7.74972 5.43911 7.94197 5.15292C8.13525 4.86777 8.45843 4.69668 8.80343 4.69668H19.195C19.5411 4.69668 19.8642 4.86673 20.0565 5.15292C20.2498 5.43807 20.2872 5.80203 20.1573 6.1214ZM14.073 10.3707L14.0003 10.4287L13.9151 10.3613C12.8271 9.50277 11.473 8.25744 10.516 6.77154H17.4804C16.5202 8.25329 15.1641 9.50485 14.074 10.3717L14.073 10.3707Z"
        fill="currentColor" />
</svg>