<svg  viewBox="0 0 28 28" fill="none" xmlns="http://www.w3.org/2000/svg">
    <path
        d="M5.51504 7.52764C7.27229 7.52764 8.69683 6.10311 8.69683 4.34585C8.69683 2.5886 7.27229 1.16406 5.51504 1.16406C3.75779 1.16406 2.33325 2.5886 2.33325 4.34585C2.33325 6.10311 3.75779 7.52764 5.51504 7.52764Z"
        fill="currentColor" />
    <path
        d="M13.9987 7.52764C15.7559 7.52764 17.1805 6.10311 17.1805 4.34585C17.1805 2.5886 15.7559 1.16406 13.9987 1.16406C12.2414 1.16406 10.8169 2.5886 10.8169 4.34585C10.8169 6.10311 12.2414 7.52764 13.9987 7.52764Z"
        fill="currentColor" />
    <path
        d="M22.4845 7.52764C24.2418 7.52764 25.6663 6.10311 25.6663 4.34585C25.6663 2.5886 24.2418 1.16406 22.4845 1.16406C20.7273 1.16406 19.3027 2.5886 19.3027 4.34585C19.3027 6.10311 20.7273 7.52764 22.4845 7.52764Z"
        fill="currentColor" />
    <path
        d="M25.6666 24.5044C25.6666 25.6708 24.7114 26.6257 23.5453 26.6257H4.45455C3.28843 26.6257 2.33325 25.6708 2.33325 24.5044V11.7772C2.33325 10.6111 3.28843 9.65625 4.45455 9.65625H23.5453C24.7114 9.65625 25.6666 10.6111 25.6666 11.7772V24.5044Z"
        fill="currentColor" />
</svg>