<svg  viewBox="0 0 28 28" fill="none" xmlns="http://www.w3.org/2000/svg">
    <path
        d="M17.5661 17.6641L19.8612 25.2084C20.0834 25.939 21.1124 25.9548 21.3566 25.2303L22.4311 22.0418C22.5098 21.809 22.6918 21.627 22.9246 21.5483L26.1131 20.4738C26.8367 20.2296 26.8218 19.2006 26.0912 18.9784L18.5469 16.6833C17.9458 16.5013 17.3841 17.063 17.5661 17.6641Z"
        fill="currentColor" />
    <path
        d="M16.3105 18.0509C16.1145 17.4086 16.2317 16.7305 16.6307 16.1924C17.0262 15.6595 17.6545 15.341 18.3134 15.341C18.5208 15.341 18.7272 15.3716 18.9285 15.4329L25.7115 17.4952V5.48937C25.7115 3.69562 24.2502 2.23438 22.4565 2.23438H4.61437C2.82062 2.23438 1.35938 3.69562 1.35938 5.48937V20.0581C1.35938 21.8606 2.82063 23.3219 4.62313 23.3219H17.9126L16.3105 18.0509ZM2.93437 7.78187V5.49025C2.93437 4.56362 3.68775 3.81025 4.61437 3.81025H22.4556C23.3822 3.81025 24.1356 4.56362 24.1356 5.49025V7.78187H2.93437Z"
        fill="currentColor" />
</svg>