<svg width="14" height="13" viewBox="0 0 14 13" fill="none" xmlns="http://www.w3.org/2000/svg">
<path d="M7.00049 0.0833435C10.5442 0.0835193 13.4165 2.95662 13.4165 6.50034C13.4163 10.0439 10.5441 12.9162 7.00049 12.9164C3.45677 12.9164 0.583672 10.044 0.583496 6.50034C0.583496 2.95651 3.45666 0.0833435 7.00049 0.0833435ZM4.59131 10.2904C5.2874 10.7336 6.11313 10.9915 6.99951 10.9915C7.88965 10.9915 8.71844 10.7312 9.4165 10.2845L7.00635 7.87436L4.59131 10.2904ZM3.21436 4.08237C2.76762 4.78048 2.5083 5.61009 2.5083 6.50034C2.50837 7.3973 2.77306 8.23171 3.22607 8.93295L5.64502 6.51303L3.21436 4.08237ZM8.36768 6.51303L10.7788 8.92416C11.2286 8.22468 11.4916 7.39367 11.4917 6.50034C11.4917 5.61372 11.234 4.78749 10.7905 4.09116L8.36768 6.51303ZM6.99951 2.00815C6.10608 2.00822 5.27424 2.27021 4.57471 2.72006L7.00635 5.1517L9.43311 2.72592C8.73162 2.27265 7.8967 2.00815 6.99951 2.00815Z" fill="#5E6B66"/>
</svg>
