<svg width="66" height="62" viewBox="0 0 66 62" fill="none" xmlns="http://www.w3.org/2000/svg">
<path d="M24.6262 39.6909C24.6259 43.2392 26.0075 46.5752 28.517 49.0847C33.6961 54.2638 42.1232 54.2638 47.3025 49.0848L49.0243 47.3627C54.2037 42.1835 54.2037 33.7565 49.0243 28.5773C46.5152 26.0681 43.1788 24.6862 39.6304 24.6867L39.3752 24.6869C36.5725 24.6223 33.9472 23.5007 31.9579 21.5112C29.9671 19.5206 28.8451 16.8928 28.7821 14.0876L28.7823 13.8387C28.7828 10.2904 27.401 6.95418 24.8918 4.44493C19.7128 -0.734246 11.2856 -0.734246 6.10638 4.44493L4.38422 6.1669C-0.794771 11.3461 -0.794771 19.7731 4.3844 24.9523C6.89383 27.4617 10.2299 28.8434 13.7783 28.843L14.0355 28.8426C16.8376 28.9076 19.4621 30.0296 21.4508 32.0184C23.4423 34.0098 24.5643 36.6386 24.6266 39.4449L24.6262 39.6909ZM31.9611 45.6405C29.8426 43.5222 28.7834 40.7457 28.7837 37.9691L28.7868 37.9702C28.787 34.5695 27.4894 31.1687 24.895 28.5743C22.3006 25.9798 18.9001 24.6823 15.4996 24.6823L15.5001 24.6853C12.7234 24.6857 9.94701 23.6264 7.82872 21.5081C3.98254 17.6618 3.6288 11.6467 6.76626 7.40077C11.0122 4.26332 17.6013 4.04306 21.4474 7.88906C23.5657 10.0074 24.625 12.7841 24.6246 15.5607L24.6216 15.5599C24.6218 18.9604 25.919 22.3609 28.5136 24.9555C31.1082 27.5501 34.5092 28.8475 37.9095 28.8473L37.9084 28.8443C40.685 28.8441 43.4613 29.9031 45.5798 32.0216C49.426 35.8678 49.2056 42.4569 46.0685 46.7028C41.8226 49.8404 35.8073 49.4865 31.9611 45.6405Z" fill="#B8DF91"/>
<path d="M26.3489 37.9687C26.3484 41.517 27.7303 44.8533 30.2395 47.3625C35.4189 52.5417 43.8459 52.5418 49.0249 47.3627C54.2042 42.1835 54.2042 33.7565 49.0249 28.5773C46.5158 26.0681 43.1794 24.6862 39.6309 24.6868L39.3758 24.6869C36.5731 24.6223 33.9477 23.5007 31.9584 21.5112C29.9677 19.5206 28.8457 16.8928 28.7827 14.0876L28.7829 13.8387C28.7834 10.2904 27.4016 6.95418 24.8923 4.44493C19.7133 -0.734246 11.2861 -0.734246 6.10695 4.44493C0.927774 9.6241 0.927953 18.0509 6.10713 23.2301C8.61637 25.7394 11.9526 27.1212 15.5009 27.1209L15.7582 27.1207C18.5603 27.1856 21.1848 28.3075 23.1736 30.2964C25.1648 32.2875 26.287 34.9165 26.3491 37.7227L26.3489 37.9687ZM31.9617 45.6405C29.8432 43.5222 28.7839 40.7457 28.7843 37.9691L28.7873 37.9702C28.7875 34.5695 27.4901 31.1687 24.8955 28.5741C22.3009 25.9797 18.9005 24.6823 15.5 24.6823L15.5005 24.6853C12.7238 24.6857 9.9474 23.6264 7.8291 21.5081C3.59269 17.2717 3.59269 10.4033 7.82892 6.1669C12.0653 1.93049 18.9336 1.93067 23.1702 6.16708C25.2885 8.28538 26.3475 11.0619 26.3473 13.8385L26.3443 13.8378C26.3445 17.2384 27.6417 20.6389 30.2363 23.2335C32.8309 25.8281 36.2317 27.1253 39.6327 27.1251L39.6313 27.1221C42.4082 27.1217 45.1842 28.1812 47.3027 30.2995C51.539 34.5359 51.5393 41.4041 47.3027 45.6403C43.0665 49.8769 36.1982 49.8769 31.9617 45.6405Z" fill="#CEFFA3"/>
<path d="M40.3897 38.7565C37.8802 41.2652 36.4982 44.6013 36.4982 48.1501C36.4982 55.4744 42.4572 61.4333 49.7813 61.4333H52.2166C59.5411 61.4333 65.4997 55.4744 65.4999 48.1499C65.4997 44.6013 64.1177 41.2652 61.6084 38.7565L61.4279 38.5762C59.4919 36.5486 58.4286 33.8992 58.4286 31.086C58.4286 28.2708 59.4934 25.6191 61.4324 23.591L61.6082 23.4153C64.1175 20.9064 65.4995 17.5703 65.4995 14.0217C65.4995 6.69721 59.5409 0.73846 52.2165 0.73846L49.7811 0.738281C42.4568 0.73846 36.498 6.69721 36.498 14.0217C36.498 17.5705 37.8801 20.9066 40.3893 23.4153L40.5713 23.5967C42.5067 25.6241 43.5692 28.2733 43.5692 31.0856C43.5692 33.9019 42.5037 36.5543 40.5636 38.5826L40.3897 38.7565ZM41.3693 48.1501C41.3693 45.154 42.5835 42.4417 44.5472 40.4787L44.5484 40.4815C46.953 38.077 48.4404 34.755 48.4402 31.0856C48.4402 27.4166 46.9532 24.0945 44.5488 21.6901L44.5472 21.6926C42.5835 19.7294 41.3693 17.0173 41.3693 14.0215C41.3693 8.58201 45.3724 4.07864 50.5933 3.29512C55.8141 4.079 60.6292 8.58219 60.6292 14.0215C60.6292 17.0173 59.4148 19.7296 57.4513 21.6926L57.4497 21.6899C55.0451 24.0945 53.5579 27.4166 53.5579 31.0856C53.5579 34.755 55.0453 38.0771 57.45 40.4815L57.4513 40.4787C59.415 42.4417 60.6292 45.154 60.6292 48.1499C60.6292 53.5891 55.8141 58.0924 50.5933 58.8765C45.3726 58.0928 41.3693 53.5891 41.3693 48.1501Z" fill="#3A76FF"/>
<path d="M42.8252 38.7563C40.316 41.265 38.9338 44.6009 38.9338 48.1497C38.9338 55.4744 44.8925 61.4332 52.2168 61.4332C59.5413 61.4332 65.4999 55.4742 65.5001 48.1497C65.4999 44.6011 64.1179 41.265 61.6086 38.7563L61.4281 38.576C59.4921 36.5484 58.4288 33.8991 58.4288 31.0858C58.4288 28.2706 59.4935 25.6189 61.4326 23.5908L61.6084 23.4151C64.1177 20.9062 65.4997 17.5701 65.4997 14.0215C65.4997 6.69703 59.5411 0.738281 52.2167 0.738281C44.8922 0.738102 38.9336 6.69703 38.9336 14.0215C38.9336 17.5701 40.3158 20.9062 42.825 23.4151L43.0072 23.5969C44.9424 25.6243 46.0049 28.2733 46.0049 31.0858C46.0049 33.9019 44.9394 36.5543 42.9991 38.5824L42.8252 38.7563ZM41.3693 48.1499C41.3693 45.1538 42.5835 42.4415 44.5472 40.4785L44.5484 40.4814C46.953 38.0768 48.4404 34.7549 48.4404 31.0854C48.4406 27.4164 46.9532 24.0943 44.5488 21.6899L44.5472 21.6924C42.5835 19.7292 41.3693 17.0171 41.3693 14.0213C41.3693 8.0302 46.2261 3.17328 52.2168 3.17328C58.208 3.17328 63.0645 8.03003 63.0645 14.0213C63.0645 17.0173 61.8504 19.7292 59.8866 21.6926L59.8849 21.6899C57.4805 24.0945 55.9932 27.416 55.9931 31.0856C55.9932 34.7548 57.4805 38.077 59.8854 40.4814L59.8866 40.4785C61.8504 42.4417 63.0645 45.1538 63.0644 48.1496C63.0644 54.1409 58.208 58.9974 52.2168 58.9974C46.2261 58.9976 41.3691 54.1409 41.3693 48.1499Z" fill="#5D8FFF"/>
</svg>
