<svg width="28" height="28" viewBox="0 0 28 28" fill="none" xmlns="http://www.w3.org/2000/svg">
<path fill-rule="evenodd" clip-rule="evenodd" d="M2.25477 7.86131H22.7856C23.5444 7.86131 24.1653 8.48218 24.1653 9.24108V21.5769C24.1653 22.3357 23.5444 22.9566 22.7856 22.9566H2.25477C1.49592 22.9566 0.875 22.3357 0.875 21.5769V9.24102C0.875 8.48218 1.49587 7.86131 2.25477 7.86131ZM5.21418 5.04688C4.45528 5.04688 3.83447 5.66774 3.83447 6.42659V6.54876H22.7856C24.2663 6.54876 25.4778 7.76025 25.4778 9.24097V20.1421H25.745C26.5039 20.1421 27.1248 19.5212 27.1248 18.7624V6.42664C27.1248 5.6678 26.5039 5.04693 25.745 5.04693L5.21418 5.04688ZM14.7207 13.5187C14.584 13.0854 14.2792 12.7143 13.8697 12.4572C13.6425 12.3146 13.3827 12.2066 13.1025 12.1431V11.8374C13.1025 11.5158 12.8418 11.2551 12.5202 11.2551C12.1986 11.2551 11.938 11.5158 11.938 11.8374V12.1425C11.5627 12.227 11.2248 12.3906 10.9532 12.6104C10.5124 12.9671 10.2397 13.4701 10.2397 14.0347C10.2397 14.5994 10.5124 15.1023 10.9532 15.459C11.3595 15.7878 11.9139 15.9911 12.5202 15.9911C12.8518 15.9911 13.1465 16.0954 13.3549 16.2639C13.5286 16.4046 13.6362 16.5887 13.6362 16.783C13.6362 16.9772 13.5286 17.1614 13.3549 17.302C13.1465 17.4706 12.8518 17.5749 12.5202 17.5749C12.2623 17.5749 12.0268 17.512 11.8363 17.4049C11.659 17.3051 11.5246 17.171 11.4554 17.0202C11.3223 16.7288 10.978 16.6005 10.6866 16.7336C10.3952 16.8668 10.2669 17.211 10.4 17.5024C10.5743 17.882 10.88 18.2012 11.2677 18.4193C11.4704 18.5333 11.6964 18.6206 11.938 18.6751V18.9803C11.938 19.3019 12.1986 19.5626 12.5202 19.5626C12.8418 19.5626 13.1025 19.3019 13.1025 18.9803V18.6752C13.4777 18.5908 13.8156 18.427 14.0872 18.2073C14.528 17.8506 14.8007 17.3476 14.8007 16.783C14.8007 16.2183 14.5281 15.7154 14.0872 15.3587C13.681 15.0299 13.1265 14.8266 12.5202 14.8266C12.1886 14.8266 11.8939 14.7223 11.6856 14.5538C11.5118 14.4131 11.4043 14.229 11.4043 14.0347C11.4043 13.8404 11.5118 13.6563 11.6856 13.5156C11.8939 13.3471 12.1886 13.2428 12.5202 13.2428C12.8014 13.2428 13.0546 13.3163 13.2511 13.4397C13.4291 13.5514 13.5581 13.7018 13.6108 13.8689C13.7076 14.1754 14.0345 14.3454 14.3409 14.2487C14.6474 14.1521 14.8175 13.8253 14.7207 13.5187ZM5.78091 9.43702C5.22588 9.43702 4.75847 9.83148 4.65998 10.3769C4.54491 11.0147 4.02845 11.5311 3.39068 11.6462C2.84523 11.7447 2.45071 12.2121 2.45071 12.7672V18.0507C2.45071 18.6057 2.84523 19.0732 3.39068 19.1716C4.02845 19.2867 4.54491 19.8031 4.65998 20.4409C4.75841 20.9864 5.22588 21.3808 5.78091 21.3808H19.2595C19.8145 21.3808 20.282 20.9863 20.3804 20.4409C20.4955 19.8031 21.0119 19.2867 21.6497 19.1716C22.1951 19.0732 22.5897 18.6057 22.5897 18.0507V12.7671C22.5897 12.2121 22.1951 11.7446 21.6497 11.6462C21.0119 11.5311 20.4955 11.0146 20.3804 10.3769C20.282 9.83143 19.8145 9.43697 19.2595 9.43697H5.78091V9.43702ZM19.1227 10.7495H5.91757C5.66847 11.8219 4.83563 12.6547 3.76327 12.9038V17.914C4.83563 18.1631 5.66847 18.9959 5.91757 20.0683H19.1227C19.3718 18.996 20.2046 18.1631 21.277 17.914V12.9038C20.2047 12.6547 19.3718 11.8219 19.1227 10.7495Z" fill="#697D67"/>
</svg>
