<svg width="22" height="15" viewBox="0 0 22 15" fill="none" xmlns="http://www.w3.org/2000/svg">
<path d="M6 10H16M5 5.5H5.01M9 5.5H9.01M13 5.5H13.01M17 5.5H17.01M4.2 13.5H17.8C18.9201 13.5 19.4802 13.5 19.908 13.282C20.2843 13.0903 20.5903 12.7843 20.782 12.408C21 11.9802 21 11.4201 21 10.3V4.7C21 3.5799 21 3.01984 20.782 2.59202C20.5903 2.21569 20.2843 1.90973 19.908 1.71799C19.4802 1.5 18.9201 1.5 17.8 1.5H4.2C3.07989 1.5 2.51984 1.5 2.09202 1.71799C1.71569 1.90973 1.40973 2.21569 1.21799 2.59202C1 3.01984 1 3.57989 1 4.7V10.3C1 11.4201 1 11.9802 1.21799 12.408C1.40973 12.7843 1.71569 13.0903 2.09202 13.282C2.51984 13.5 3.0799 13.5 4.2 13.5Z" stroke="#181B1A" stroke-width="1.75" stroke-linecap="round" stroke-linejoin="round"/>
</svg>
