<svg  viewBox="0 0 28 28" fill="none" xmlns="http://www.w3.org/2000/svg">
    <path
        d="M17.5 1.75H10.5C10.0359 1.75 9.59075 1.93437 9.26256 2.26256C8.93437 2.59075 8.75 3.03587 8.75 3.5V26.0312C8.75 26.0893 8.77305 26.1449 8.81407 26.1859C8.85509 26.227 8.91073 26.25 8.96875 26.25H19.0312C19.0893 26.25 19.1449 26.227 19.1859 26.1859C19.227 26.1449 19.25 26.0893 19.25 26.0312V3.5C19.25 3.03587 19.0656 2.59075 18.7374 2.26256C18.4092 1.93437 17.9641 1.75 17.5 1.75ZM25.375 7.00697H21.4375C21.3215 7.00697 21.2102 7.05306 21.1281 7.13511C21.0461 7.21716 21 7.32844 21 7.44447V25.8125C21 25.9285 21.0461 26.0398 21.1281 26.1219C21.2102 26.2039 21.3215 26.25 21.4375 26.25H25.8125C26.1606 26.25 26.4944 26.1117 26.7406 25.8656C26.9867 25.6194 27.125 25.2856 27.125 24.9375V8.75697C27.125 8.29284 26.9406 7.84772 26.6124 7.51953C26.2842 7.19134 25.8391 7.00697 25.375 7.00697ZM2.625 7C2.16087 7 1.71575 7.18437 1.38756 7.51256C1.05937 7.84075 0.875 8.28587 0.875 8.75V24.9375C0.875 25.2856 1.01328 25.6194 1.25942 25.8656C1.50556 26.1117 1.8394 26.25 2.1875 26.25H6.5625C6.67853 26.25 6.78981 26.2039 6.87186 26.1219C6.95391 26.0398 7 25.9285 7 25.8125V7.4375C7 7.32147 6.95391 7.21019 6.87186 7.12814C6.78981 7.04609 6.67853 7 6.5625 7H2.625Z"
        fill="currentColor" />
</svg>