<svg width="14" height="13" viewBox="0 0 14 13" fill="none" xmlns="http://www.w3.org/2000/svg">
<path d="M6.75573 12.9167C6.83715 12.9167 6.91856 12.9167 6.99998 12.9167C7.0814 12.9167 7.16281 12.9167 7.24423 12.9167C8.92366 12.8527 10.511 12.1321 11.6649 10.9098C12.8189 9.68755 13.4475 8.06113 13.4155 6.38018C13.3835 4.69922 12.6935 3.09792 11.4939 1.92046C10.2942 0.742995 8.68063 0.083374 6.99998 0.083374C5.31933 0.083374 3.70576 0.742995 2.5061 1.92046C1.30645 3.09792 0.616469 4.69922 0.584477 6.38018C0.552485 8.06113 1.18103 9.68755 2.33502 10.9098C3.489 12.1321 5.0763 12.8527 6.75573 12.9167ZM6.99998 11.4673C6.652 11.4673 6.31184 11.364 6.0225 11.1706C5.73317 10.9772 5.50766 10.7024 5.3745 10.3808C5.24133 10.0591 5.20649 9.70526 5.27438 9.36384C5.34227 9.02243 5.50983 8.70882 5.75589 8.46267C6.00195 8.21652 6.31544 8.0489 6.65674 7.98098C6.99803 7.91307 7.35179 7.94793 7.67328 8.08114C7.99477 8.21435 8.26955 8.43994 8.46288 8.72938C8.6562 9.01882 8.75939 9.35911 8.75939 9.70721C8.75884 10.1738 8.5733 10.6212 8.24346 10.9511C7.91363 11.2811 7.46644 11.4667 6.99998 11.4673ZM9.98683 10.0075C9.98683 9.90806 10.0013 9.80039 10.0013 9.70721C10.0013 8.91092 9.68511 8.14724 9.12225 7.58417C8.55939 7.02111 7.79599 6.70478 6.99998 6.70478C6.20397 6.70478 5.44057 7.02111 4.87771 7.58417C4.31485 8.14724 3.99864 8.91092 3.99864 9.70721C3.99864 9.80867 3.99864 9.91428 4.01313 10.0075C3.68091 9.47453 3.49728 8.8624 3.48127 8.23455C3.46527 7.6067 3.61747 6.986 3.92209 6.43683C4.22672 5.88766 4.67267 5.43002 5.2137 5.11138C5.75473 4.79275 6.37112 4.62471 6.99894 4.62471C7.62677 4.62471 8.24316 4.79275 8.78419 5.11138C9.32522 5.43002 9.77117 5.88766 10.0758 6.43683C10.3804 6.986 10.5326 7.6067 10.5166 8.23455C10.5006 8.8624 10.317 9.47453 9.98476 10.0075H9.98683ZM6.99998 1.32111C7.85916 1.32121 8.70479 1.53531 9.46057 1.9441C10.2163 2.35289 10.8585 2.94349 11.329 3.66262C11.7996 4.38175 12.0837 5.20677 12.1559 6.06322C12.228 6.91968 12.0858 7.78062 11.7421 8.56836C11.7545 8.4317 11.7607 8.29503 11.7607 8.15423C11.7607 6.89114 11.2592 5.67979 10.3663 4.78665C9.47353 3.89351 8.26261 3.39175 6.99998 3.39175C5.73735 3.39175 4.52643 3.89351 3.63362 4.78665C2.74081 5.67979 2.23923 6.89114 2.23923 8.15423C2.23923 8.29296 2.23923 8.4317 2.25786 8.56836C1.91419 7.78062 1.77199 6.91968 1.84411 6.06322C1.91622 5.20677 2.20037 4.38175 2.67092 3.66262C3.14147 2.94349 3.78361 2.35289 4.53939 1.9441C5.29517 1.53531 6.1408 1.32121 6.99998 1.32111Z" fill="#5E6B66"/>
</svg>
