<svg width="14" height="13" viewBox="0 0 14 13" fill="none" xmlns="http://www.w3.org/2000/svg">
<path d="M6.41667 3.00004C6.41667 3.5769 6.24564 4.14081 5.9251 4.62048C5.60462 5.1001 5.14909 5.47396 4.61616 5.69469C4.08322 5.91542 3.49678 5.97323 2.931 5.86065C2.36522 5.74812 1.84552 5.47034 1.43762 5.06241C1.02971 4.65455 0.751926 4.13486 0.639389 3.56908C0.526847 3.00325 0.584608 2.41684 0.805359 1.88388C1.02612 1.35093 1.39996 0.895409 1.8796 0.57492C2.35924 0.254436 2.92315 0.083374 3.50001 0.083374C4.27357 0.083374 5.01545 0.390668 5.56238 0.937648C6.10937 1.48463 6.41667 2.22649 6.41667 3.00004ZM10.5 5.91671C11.0769 5.91671 11.6408 5.74567 12.1204 5.42513C12.6001 5.10465 12.9739 4.64912 13.1947 4.11619C13.4154 3.58326 13.4732 2.99681 13.3606 2.43103C13.2481 1.86525 12.9703 1.34555 12.5624 0.937648C12.1545 0.529746 11.6348 0.251957 11.069 0.139421C10.5032 0.0268781 9.91679 0.0846398 9.38386 0.305391C8.85092 0.526147 8.3954 0.899988 8.07492 1.37963C7.75437 1.85927 7.58334 2.42318 7.58334 3.00004C7.58334 3.7736 7.89064 4.51548 8.43763 5.06241C8.98462 5.60941 9.72645 5.91671 10.5 5.91671ZM3.50001 7.08337C2.92315 7.08337 2.35924 7.25441 1.8796 7.57495C1.39996 7.89543 1.02612 8.35095 0.805359 8.88389C0.584608 9.41682 0.526847 10.0032 0.639389 10.5691C0.751926 11.1349 1.02971 11.6545 1.43762 12.0624C1.84552 12.4703 2.36522 12.7481 2.931 12.8606C3.49678 12.9732 4.08322 12.9154 4.61616 12.6947C5.14909 12.474 5.60462 12.1001 5.9251 11.6205C6.24564 11.1408 6.41667 10.5769 6.41667 10C6.41667 9.22648 6.10937 8.48466 5.56238 7.93766C5.01545 7.39067 4.27357 7.08337 3.50001 7.08337ZM10.5 7.08337C9.92315 7.08337 9.35924 7.25441 8.87962 7.57495C8.39995 7.89543 8.02609 8.35095 7.80536 8.88389C7.58462 9.41682 7.52682 10.0032 7.6394 10.5691C7.75192 11.1349 8.02971 11.6545 8.43763 12.0624C8.8455 12.4703 9.36519 12.7481 9.93097 12.8606C10.4968 12.9732 11.0832 12.9154 11.6162 12.6947C12.1491 12.474 12.6046 12.1001 12.9252 11.6205C13.2456 11.1408 13.4167 10.5769 13.4167 10C13.4167 9.22648 13.1094 8.48466 12.5624 7.93766C12.0154 7.39067 11.2736 7.08337 10.5 7.08337Z" fill="#5E6B66"/>
</svg>
