<svg width="28" height="28" viewBox="0 0 28 28" fill="none" xmlns="http://www.w3.org/2000/svg">
<path fill-rule="evenodd" clip-rule="evenodd" d="M14.0013 1.16406C6.91364 1.16406 1.16797 6.90974 1.16797 13.9974C1.16797 21.085 6.91364 26.8307 14.0013 26.8307C21.0889 26.8307 26.8346 21.085 26.8346 13.9974C26.8346 6.90974 21.0889 1.16406 14.0013 1.16406ZM3.73464 13.9974C3.73464 8.32727 8.33118 3.73073 14.0013 3.73073C19.6715 3.73073 24.268 8.32727 24.268 13.9974C24.268 19.6675 19.6715 24.2641 14.0013 24.2641C8.33118 24.2641 3.73464 19.6675 3.73464 13.9974ZM12.7801 7.9773C13.1643 6.79496 14.837 6.79494 15.2211 7.9773L16.1955 10.9763H19.349C20.5921 10.9763 21.109 12.5671 20.1033 13.2979L17.5522 15.1514L18.5266 18.1504C18.9108 19.3327 17.5575 20.3159 16.5518 19.5852L14.0007 17.7316L11.4495 19.5852C10.4438 20.3159 9.09054 19.3327 9.4747 18.1504L10.4491 15.1514L7.89804 13.2979C6.89228 12.5671 7.40916 10.9763 8.65236 10.9763H11.8056L12.7801 7.9773Z" fill="#697D67"/>
</svg>
