<svg width="28" height="28" viewBox="0 0 28 28" fill="none" xmlns="http://www.w3.org/2000/svg">
<path d="M11.3577 25.4684C6.18019 24.2259 2.33203 19.5659 2.33203 14.0077C2.33203 8.44946 6.18019 3.78943 11.3577 2.54688" stroke="#697D67" stroke-width="2.33333" stroke-miterlimit="10" stroke-linecap="round"/>
<path d="M16.8789 2.54688C22.0564 3.78943 25.9045 8.44946 25.9045 14.0077C25.9045 19.5659 22.0564 24.2259 16.8789 25.4684" stroke="#697D67" stroke-width="2.33333" stroke-miterlimit="10" stroke-linecap="round"/>
<path d="M14.1163 19.4202C17.1081 19.4202 19.5335 16.9949 19.5335 14.0031C19.5335 11.0113 17.1081 8.58594 14.1163 8.58594C11.1245 8.58594 8.69922 11.0113 8.69922 14.0031C8.69922 16.9949 11.1245 19.4202 14.1163 19.4202Z" fill="#697D67" stroke="#697D67" stroke-width="2.33333" stroke-miterlimit="10"/>
<path d="M16.8817 3.6227C17.4786 3.6227 17.9625 3.13878 17.9625 2.54182C17.9625 1.94487 17.4786 1.46094 16.8817 1.46094C16.2847 1.46094 15.8008 1.94487 15.8008 2.54182C15.8008 3.13878 16.2847 3.6227 16.8817 3.6227Z" stroke="#697D67" stroke-width="2.33333" stroke-miterlimit="10"/>
<path d="M11.3582 26.5446C11.9552 26.5446 12.4391 26.0607 12.4391 25.4637C12.4391 24.8667 11.9552 24.3828 11.3582 24.3828C10.7613 24.3828 10.2773 24.8667 10.2773 25.4637C10.2773 26.0607 10.7613 26.5446 11.3582 26.5446Z" stroke="#697D67" stroke-width="2.33333" stroke-miterlimit="10"/>
</svg>
