<svg  viewBox="0 0 28 28" fill="none" xmlns="http://www.w3.org/2000/svg">
    <path
        d="M4.56766 17.0577H1.76309V16.0383C1.74766 14.6088 2.12622 13.2028 2.85725 11.9743C3.58828 10.7459 4.64354 9.74247 5.90725 9.07423C7.15217 8.46041 8.50043 8.08359 9.8832 7.96301C9.27899 8.71062 8.67309 9.50513 8.06548 10.3465C6.69695 12.472 5.52612 14.7185 4.56766 17.0577ZM17.6496 19.9255C15.5242 21.2958 13.2778 22.4683 10.9384 23.4284V26.233H11.9578C13.3873 26.2484 14.7933 25.8699 16.0218 25.1388C17.2502 24.4078 18.2536 23.3526 18.9219 22.0888C19.5357 20.8439 19.9125 19.4957 20.0331 18.1129C19.2889 18.7144 18.4944 19.3186 17.6496 19.9255ZM26.2305 4.81487C26.0949 9.25264 22.8998 13.6537 16.4619 18.2719C14.7099 19.4076 12.8617 20.3874 10.9384 21.1999V20.6259C10.9338 19.681 10.5564 18.776 9.88823 18.1079C9.22006 17.4397 8.31513 17.0623 7.3702 17.0577H6.79624C7.60967 15.1345 8.59079 13.2865 9.72824 11.5352C14.3352 5.10746 18.7292 1.91243 23.1598 1.76562C25.368 1.76562 26.2305 2.66786 26.2305 4.81487ZM20.1136 10.4312C20.1136 9.7552 19.8451 9.10693 19.3671 8.62896C18.8892 8.15099 18.2409 7.88247 17.5649 7.88247C16.889 7.88247 16.2407 8.15099 15.7627 8.62896C15.2848 9.10693 15.0163 9.7552 15.0163 10.4312C15.0163 11.1071 15.2848 11.7554 15.7627 12.2333C16.2407 12.7113 16.889 12.9798 17.5649 12.9798C18.2409 12.9798 18.8892 12.7113 19.3671 12.2333C19.8451 11.7554 20.1136 11.1071 20.1136 10.4312ZM3.16385 26.0138C4.31178 25.8099 7.07965 25.2411 8.00431 24.3174C8.28834 24.0334 8.51364 23.6962 8.66735 23.3251C8.82106 22.954 8.90018 22.5563 8.90018 22.1546C8.90018 21.7529 8.82106 21.3552 8.66735 20.9841C8.51364 20.613 8.28834 20.2758 8.00431 19.9918C7.72029 19.7078 7.3831 19.4825 7.012 19.3287C6.64091 19.175 6.24317 19.0959 5.8415 19.0959C5.03029 19.0959 4.2523 19.4182 3.67868 19.9918C2.75504 20.9164 2.18515 23.6843 1.98228 24.8322L1.73047 26.2656L3.16385 26.0138Z"
        fill="currentColor" />
</svg>