<svg width="20" height="26" viewBox="0 0 20 26" fill="none" xmlns="http://www.w3.org/2000/svg">
<path d="M19.307 5.30493C19.4826 4.13114 19.1345 2.93869 18.353 2.03347C17.5581 1.11269 16.4056 0.585938 15.1898 0.585938H4.80863C3.59281 0.585938 2.44039 1.11476 1.64647 2.03554C0.863982 2.94181 0.516904 4.13426 0.693561 5.30908C1.11546 8.10771 2.65237 10.699 5.2669 13.0279C2.65133 15.3568 1.11442 17.948 0.693561 20.7466C0.516904 21.9215 0.865021 23.1139 1.64647 24.0202C2.44039 24.942 3.59385 25.4688 4.80863 25.4688H15.1898C16.4056 25.4688 17.5581 24.942 18.353 24.0212C19.1345 23.116 19.4826 21.9235 19.307 20.7508C18.8882 17.9615 17.3492 15.3682 14.7284 13.0268C17.3492 10.6855 18.8882 8.09319 19.307 5.30493ZM16.1573 5.1214C15.1347 7.64317 12.9868 9.70663 11.3678 10.9924L10.6508 11.5637C10.2715 11.8644 9.73632 11.8644 9.35702 11.5658L8.62546 10.9862C7.00749 9.70974 4.86474 7.65561 3.84013 5.1214C3.71024 4.80099 3.74972 4.43911 3.94197 4.15292C4.13525 3.86777 4.45843 3.69668 4.80343 3.69668H15.195C15.5411 3.69668 15.8642 3.86673 16.0565 4.15292C16.2498 4.43807 16.2872 4.80203 16.1573 5.1214ZM10.073 9.37067L10.0003 9.42874L9.91505 9.36134C8.82705 8.50277 7.47303 7.25744 6.51596 5.77154H13.4804C12.5202 7.25329 11.1641 8.50485 10.074 9.37171L10.073 9.37067Z" fill="#697D67"/>
</svg>
