<svg width="28" height="28" viewBox="0 0 28 28" fill="none" xmlns="http://www.w3.org/2000/svg">
<path d="M26.0635 12.4161L26.0548 12.4123L2.69883 2.72491C2.50238 2.64268 2.28861 2.61044 2.07665 2.63105C1.86469 2.65166 1.66114 2.7245 1.48422 2.84303C1.29729 2.96552 1.14375 3.13255 1.03741 3.3291C0.931064 3.52566 0.875254 3.74557 0.875 3.96905V10.1646C0.875104 10.4701 0.981782 10.766 1.17665 11.0013C1.37151 11.2366 1.64236 11.3966 1.9425 11.4536L14.6809 13.809C14.7309 13.8185 14.7761 13.8451 14.8086 13.8844C14.8411 13.9236 14.8589 13.9729 14.8589 14.0239C14.8589 14.0748 14.8411 14.1242 14.8086 14.1634C14.7761 14.2027 14.7309 14.2293 14.6809 14.2388L1.94305 16.5942C1.64299 16.6511 1.37216 16.8108 1.17721 17.0459C0.982254 17.281 0.875383 17.5767 0.875 17.8821V24.0787C0.874855 24.2921 0.927694 24.5022 1.02877 24.6902C1.12986 24.8781 1.27602 25.038 1.45414 25.1555C1.66841 25.2979 1.91986 25.374 2.17711 25.3743C2.35595 25.3741 2.53295 25.3382 2.69773 25.2687L26.0531 15.6366L26.0635 15.6317C26.3779 15.4966 26.6458 15.2723 26.834 14.9865C27.0222 14.7008 27.1225 14.3661 27.1225 14.0239C27.1225 13.6817 27.0222 13.347 26.834 13.0613C26.6458 12.7755 26.3779 12.5512 26.0635 12.4161Z" fill="#697D67"/>
</svg>
