<svg width="16" height="14" viewBox="0 0 16 14" fill="none" xmlns="http://www.w3.org/2000/svg">
<path d="M1.58031 7.45272C1.39722 7.29579 1.30567 7.21732 1.27213 7.12394C1.24269 7.04199 1.24269 6.95234 1.27213 6.87039C1.30567 6.77702 1.39722 6.69855 1.58031 6.54161L7.93335 1.09615C8.24853 0.825999 8.40611 0.690925 8.53953 0.687616C8.65548 0.684739 8.76624 0.73568 8.83951 0.825589C8.92383 0.929041 8.92383 1.13659 8.92383 1.5517V4.77314C10.5248 5.05323 11.9901 5.86448 13.079 7.08257C14.2662 8.41055 14.9229 10.1291 14.9238 11.9104V12.3694C14.1368 11.4213 13.1542 10.6546 12.0433 10.1216C11.0638 9.65174 10.005 9.37341 8.92383 9.30006V12.4426C8.92383 12.8577 8.92383 13.0653 8.83951 13.1687C8.76624 13.2587 8.65548 13.3096 8.53953 13.3067C8.40611 13.3034 8.24853 13.1683 7.93335 12.8982L1.58031 7.45272Z" stroke="#5E6B66" stroke-width="1.31" stroke-linecap="round" stroke-linejoin="round"/>
</svg>
