<svg  viewBox="0 0 28 28" fill="none" xmlns="http://www.w3.org/2000/svg">
    <path
        d="M14.875 17.5254V11.0635L23.987 6.922C24.1401 6.85254 24.2699 6.74045 24.361 6.59915C24.452 6.45784 24.5005 6.2933 24.5005 6.1252C24.5005 5.95711 24.452 5.79257 24.361 5.65126C24.2699 5.50996 24.1401 5.39787 23.987 5.32841L14.362 0.953409C14.2287 0.892827 14.0824 0.866665 13.9363 0.87732C13.7903 0.887974 13.6493 0.935104 13.5262 1.01439C13.4031 1.09368 13.3019 1.20259 13.2318 1.33114C13.1617 1.4597 13.125 1.60379 13.125 1.75021V17.5254C13.4167 17.509 13.7083 17.5006 14 17.5002C14.2917 17.4998 14.5833 17.5082 14.875 17.5254Z"
        fill="currentColor" />
    <path
        d="M25.3385 25.0195C24.8704 22.6762 23.4184 20.7134 21.1396 19.343C19.3623 18.2738 17.1655 17.6313 14.8751 17.5V21.8613C14.8751 22.0934 14.783 22.316 14.6189 22.48C14.4548 22.6441 14.2322 22.7363 14.0001 22.7363C13.7681 22.7363 13.5455 22.6441 13.3814 22.48C13.2173 22.316 13.1251 22.0934 13.1251 21.8613V17.5C10.8348 17.6313 8.63804 18.2738 6.86069 19.343C4.58187 20.7134 3.12991 22.6762 2.66179 25.0195C2.60711 25.2771 2.61035 25.5435 2.67126 25.7996C2.73216 26.0557 2.84923 26.2951 3.01398 26.5005C3.34319 26.9062 3.82827 27.125 4.37515 27.125H23.6251C24.172 27.125 24.6576 26.9035 24.9869 26.5005C25.1515 26.2951 25.2685 26.0557 25.3293 25.7996C25.3901 25.5434 25.3933 25.277 25.3385 25.0195Z"
        fill="currentColor" />
</svg>