<svg width="28" height="28" viewBox="0 0 28 28" fill="none" xmlns="http://www.w3.org/2000/svg">
<path d="M28 20.6674C28 17.1868 25.1684 14.3555 21.6881 14.3555C20.8317 14.3555 20.0148 14.5272 19.2694 14.8376L17.838 12.3581C17.8627 12.3393 17.8871 12.3203 17.9117 12.3011C17.9458 12.278 17.9777 12.2515 18.0082 12.2231C19.4141 11.0646 20.3117 9.31076 20.3117 7.35098C20.3117 3.87042 17.4803 1.03906 14 1.03906C10.5197 1.03906 7.68808 3.87042 7.68808 7.35098C7.68808 9.31033 8.58551 11.064 9.99094 12.2224C10.0219 12.2511 10.0542 12.2782 10.089 12.3015C10.1131 12.3205 10.1375 12.3393 10.1618 12.3581L8.73035 14.8374C7.98502 14.5272 7.16812 14.3555 6.31171 14.3555C2.83136 14.3555 0 17.1868 0 20.6674C0 22.6267 0.897644 24.3806 2.30307 25.5393C2.33383 25.5677 2.36588 25.5944 2.40048 25.6177C3.4765 26.4696 4.83579 26.9791 6.31171 26.9791C7.78806 26.9791 9.14755 26.4694 10.2238 25.617C10.2578 25.5942 10.2894 25.5679 10.3195 25.5399C11.5262 24.5457 12.3585 23.1127 12.5702 21.4877H15.4294C15.6413 23.1125 16.4733 24.5451 17.6794 25.5393C17.7102 25.5677 17.7422 25.5944 17.7764 25.6175C18.8527 26.4696 20.2119 26.9791 21.6881 26.9791C23.1644 26.9791 24.5239 26.4694 25.6002 25.617C25.6339 25.5942 25.6653 25.5679 25.6954 25.5401C27.1019 24.3817 28 22.6274 28 20.6674ZM9.32871 7.35098C9.32871 4.77533 11.4243 2.67969 14 2.67969C16.5757 2.67969 18.6711 4.77533 18.6711 7.35098C18.6711 8.44666 18.291 9.45474 17.657 10.2522C17.2595 9.69251 16.7397 9.23386 16.1431 8.90851C16.462 8.4708 16.6508 7.93268 16.6508 7.35098C16.6508 5.88937 15.4616 4.70013 14 4.70013C12.5382 4.70013 11.3492 5.88937 11.3492 7.35098C11.3492 7.93268 11.538 8.4708 11.8567 8.9083C11.2601 9.23364 10.7403 9.69229 10.343 10.2522C9.70895 9.45474 9.32871 8.44666 9.32871 7.35098ZM11.5814 13.1808C12.3267 13.4912 13.1436 13.6629 14 13.6629C14.8564 13.6629 15.6733 13.4912 16.4186 13.1808L17.8499 15.6601C16.5522 16.6575 15.6511 18.1469 15.4296 19.8471H12.5704C12.3487 18.1469 11.4478 16.6575 10.1499 15.6601L11.5814 13.1808ZM9.96872 23.5686C9.57138 23.0087 9.05164 22.5501 8.45499 22.2247C8.77371 21.7872 8.96256 21.2491 8.96256 20.6674C8.96256 19.2058 7.77353 18.0165 6.31171 18.0165C4.8501 18.0165 3.66086 19.2058 3.66086 20.6674C3.66086 21.2491 3.8497 21.7872 4.16864 22.2247C3.57199 22.5501 3.05225 23.0087 2.65469 23.5686C2.02087 22.7709 1.64063 21.7631 1.64063 20.6674C1.64063 18.0915 3.73605 15.9961 6.31171 15.9961C8.88757 15.9961 10.983 18.0915 10.983 20.6674C10.983 21.7631 10.603 22.7709 9.96872 23.5686ZM17.0168 20.6674C17.0168 18.0915 19.1124 15.9961 21.6881 15.9961C24.2639 15.9961 26.3594 18.0915 26.3594 20.6674C26.3594 21.7631 25.9791 22.7709 25.3451 23.5686C24.9475 23.0087 24.428 22.5501 23.8314 22.2247C24.1501 21.7872 24.3389 21.2491 24.3389 20.6674C24.3389 19.2058 23.1497 18.0165 21.6881 18.0165C20.2265 18.0165 19.0372 19.2058 19.0372 20.6674C19.0372 21.2491 19.2261 21.7872 19.5448 22.2247C18.9482 22.5501 18.4286 23.0087 18.0311 23.5686C17.397 22.7709 17.0168 21.7631 17.0168 20.6674Z" fill="#697D67"/>
</svg>
