<svg  viewBox="0 0 28 28" fill="none" xmlns="http://www.w3.org/2000/svg">
    <g clip-path="url(#clip0_3802_135614)">
        <path
            d="M9.67048 12.0155V22.319C9.67048 22.7772 9.38158 23.1847 8.95038 23.3356C8.34023 23.5501 7.60396 23.6633 6.82025 23.6633C4.56615 23.6633 2.14172 22.7384 2.14172 20.7074V7.52346C2.09106 6.61794 2.40691 5.01818 3.92366 4.15255C4.62759 3.75045 8.32406 1.37346 10.1804 0.172567C10.5113 -0.0419549 10.9339 -0.0570469 11.281 0.130525C11.6281 0.320253 11.8437 0.68354 11.8437 1.07809V2.63903C11.8437 3.23409 11.3608 3.71703 10.7657 3.71703C10.3022 3.71703 9.90657 3.4249 9.75457 3.0131C8.0772 4.0911 5.60642 5.67361 4.99304 6.02396C4.4411 6.33981 4.32144 6.91978 4.29773 7.23455C4.29773 7.58814 4.37426 7.86626 4.51225 8.01826C4.89494 8.43545 6.17021 8.17565 7.56191 7.3402C8.89864 6.53816 15.4917 2.14854 15.5574 2.10435C15.8905 1.88336 16.3153 1.86287 16.6635 2.05152C17.0149 2.2391 17.2337 2.60454 17.2337 3.00232V3.12521C17.2337 3.48526 17.0537 3.8216 16.7551 4.02211C16.7551 4.02211 12.1779 7.07716 11.7726 7.33696C10.2213 8.33519 9.67048 9.5598 9.67048 12.0155ZM25.8577 6.81305V20.8077C25.8577 21.1774 25.6669 21.5224 25.3532 21.7197C25.3532 21.7197 19.0685 26.6008 17.7932 27.3759C17.1227 27.7845 16.2689 28.0001 15.3257 28.0001C13.0845 28.0001 10.7657 26.7873 10.7657 24.7596V11.6986V11.3827C10.7657 11.3784 10.769 11.3741 10.769 11.3687C10.7905 10.5796 10.9749 9.45308 12.442 8.37077C13.3217 7.72181 18.5608 4.14931 18.7828 3.99839C19.1138 3.77417 19.5417 3.75045 19.8932 3.93587C20.2468 4.12236 20.4677 4.48888 20.4677 4.88882V6.44977C20.4677 7.04482 19.9859 7.52777 19.3897 7.52777C18.9445 7.52777 18.5618 7.25827 18.398 6.87234C16.726 8.0161 14.2714 9.70102 13.7216 10.1053C13.0274 10.6184 12.9347 10.9569 12.9228 11.3913C12.925 11.7136 13.0123 11.9594 13.1891 12.1211C13.7389 12.6246 15.219 12.4133 16.6786 11.5379C17.7587 10.889 22.4135 7.29492 24.1146 5.96467C24.4413 5.71242 24.8811 5.66606 25.2519 5.84609C25.6227 6.02611 25.8577 6.40018 25.8577 6.81305ZM23.7017 11.6166L18.3117 15.7982V17.9542L23.7017 13.7726V11.6166Z"
            fill="currentColor" />
    </g>
    <defs>
        <clipPath id="clip0_3802_135614">
            <rect width="28" height="28" fill="white" />
        </clipPath>
    </defs>
</svg>