<svg width="61" height="66" viewBox="0 0 61 66" fill="none" xmlns="http://www.w3.org/2000/svg">
<path d="M50.0909 0.5C55.954 0.5 60.707 5.25294 60.707 11.116V54.8842C60.707 60.7472 55.954 65.5 50.0909 65.5H13.7916C10.7656 65.5 8.3125 63.0467 8.3125 60.0209V5.97909C8.3125 2.95308 10.7656 0.5 13.7916 0.5H50.0909Z" fill="#697D67"/>
<path d="M47.5792 0.5C53.4423 0.5 58.1952 5.25294 58.1952 11.116V54.8842C58.1952 60.7472 53.4423 65.5 47.5792 65.5H11.2799C8.25405 65.5 5.80078 63.0467 5.80078 60.0209V5.97909C5.80078 2.95308 8.25386 0.5 11.2799 0.5H47.5792Z" fill="#EBFDD8"/>
<path d="M42.1007 0.5C47.9638 0.5 52.7165 5.25294 52.7165 11.116V54.8842C52.7165 60.7472 47.9636 65.5 42.1007 65.5H5.80136C2.77535 65.5 0.322266 63.0467 0.322266 60.0209V5.97909C0.322266 2.95308 2.77535 0.5 5.80136 0.5H42.1007Z" fill="#697D67"/>
<path d="M36.8235 0.5H29.5176V65.4308H36.8235V0.5Z" fill="#B9C3B4"/>
<path d="M34.4792 0.5H31.8633V65.4308H34.4792V0.5Z" fill="#697D67"/>
<path d="M56.3254 29.3457H52.7637V36.6542H56.3254V29.3457Z" fill="#C3EF9A"/>
</svg>
