<svg width="18" height="19" viewBox="0 0 18 19" fill="none" xmlns="http://www.w3.org/2000/svg">
<path d="M15.1875 5H2.8125C1.88052 5 1.125 5.75552 1.125 6.6875V14.5625C1.125 15.4945 1.88052 16.25 2.8125 16.25H15.1875C16.1195 16.25 16.875 15.4945 16.875 14.5625V6.6875C16.875 5.75552 16.1195 5 15.1875 5Z" stroke="#5E6B66" stroke-width="1.095" stroke-linecap="round" stroke-linejoin="round"/>
<path d="M5.0625 5V3.875C5.0625 3.57663 5.18103 3.29048 5.39201 3.0795C5.60298 2.86853 5.88913 2.75 6.1875 2.75H11.8125C12.1109 2.75 12.397 2.86853 12.608 3.0795C12.819 3.29048 12.9375 3.57663 12.9375 3.875V5M16.875 8.9375H1.125M11.25 8.9375V9.78125C11.25 9.85584 11.2204 9.92738 11.1676 9.98012C11.1149 10.0329 11.0433 10.0625 10.9688 10.0625H7.03125C6.95666 10.0625 6.88512 10.0329 6.83238 9.98012C6.77963 9.92738 6.75 9.85584 6.75 9.78125V8.9375" stroke="#5E6B66" stroke-width="1.095" stroke-linecap="round" stroke-linejoin="round"/>
</svg>
