<svg width="18" height="19" viewBox="0 0 18 19" fill="none" xmlns="http://www.w3.org/2000/svg">
<path d="M11.625 6.125C11.625 7.57475 10.4497 8.75 9 8.75C7.55025 8.75 6.375 7.57475 6.375 6.125C6.375 4.67525 7.55025 3.5 9 3.5C10.4497 3.5 11.625 4.67525 11.625 6.125Z" stroke="#5E6B66" stroke-width="1.095" stroke-linecap="round" stroke-linejoin="round"/>
<path d="M15.75 13.625C15.75 15.0747 14.5747 16.25 13.125 16.25C11.6753 16.25 10.5 15.0747 10.5 13.625C10.5 12.1753 11.6753 11 13.125 11C14.5747 11 15.75 12.1753 15.75 13.625Z" stroke="#5E6B66" stroke-width="1.095" stroke-linecap="round" stroke-linejoin="round"/>
<path d="M7.5 13.625C7.5 15.0747 6.32475 16.25 4.875 16.25C3.42525 16.25 2.25 15.0747 2.25 13.625C2.25 12.1753 3.42525 11 4.875 11C6.32475 11 7.5 12.1753 7.5 13.625Z" stroke="#5E6B66" stroke-width="1.095" stroke-linecap="round" stroke-linejoin="round"/>
</svg>
