<svg  width="20" height="20" viewBox="0 0 20 20" fill="none" xmlns="http://www.w3.org/2000/svg">
    <g clip-path="url(#clip0_491_3983)">
        <path
            d="M10 4C11.1046 4 12 3.10457 12 2C12 0.895431 11.1046 0 10 0C8.89543 0 8 0.895431 8 2C8 3.10457 8.89543 4 10 4Z"
            fill="#7A8882" />
        <path
            d="M5.75781 2.92969C6.53906 3.71094 6.53906 4.97656 5.75781 5.75781C4.97656 6.53906 3.71094 6.53906 2.92969 5.75781C2.14844 4.97656 2.14844 3.71094 2.92969 2.92969C3.71094 2.14844 4.97656 2.14844 5.75781 2.92969Z"
            fill="currentColor" />
        <path
            d="M2 8C3.10547 8 4 8.89453 4 10C4 11.1055 3.10547 12 2 12C0.894531 12 0 11.1055 0 10C0 8.89453 0.894531 8 2 8Z"
            fill="currentColor" />
        <path
            d="M2.92969 14.2422C3.71094 13.4609 4.97656 13.4609 5.75781 14.2422C6.53906 15.0234 6.53906 16.2891 5.75781 17.0703C4.97656 17.8516 3.71094 17.8516 2.92969 17.0703C2.14844 16.2891 2.14844 15.0234 2.92969 14.2422Z"
            fill="currentColor" />
        <path
            d="M8 18C8 16.8945 8.89453 16 10 16C11.1055 16 12 16.8945 12 18C12 19.1055 11.1055 20 10 20C8.89453 20 8 19.1055 8 18Z"
            fill="currentColor" />
        <path
            d="M14.2422 17.0703C13.4609 16.2891 13.4609 15.0234 14.2422 14.2422C15.0234 13.4609 16.2891 13.4609 17.0703 14.2422C17.8516 15.0234 17.8516 16.2891 17.0703 17.0703C16.2891 17.8516 15.0234 17.8516 14.2422 17.0703Z"
            fill="currentColor" />
        <path
            d="M18 12C16.8945 12 16 11.1055 16 10C16 8.89453 16.8945 8 18 8C19.1055 8 20 8.89453 20 10C20 11.1055 19.1055 12 18 12Z"
            fill="currentColor" />
        <path
            d="M17.0703 5.75781C16.2891 6.53906 15.0234 6.53906 14.2422 5.75781C13.4609 4.97656 13.4609 3.71094 14.2422 2.92969C15.0234 2.14844 16.2891 2.14844 17.0703 2.92969C17.8516 3.71094 17.8516 4.97656 17.0703 5.75781Z"
            fill="currentColor" />
    </g>
    <defs>
        <clipPath id="clip0_491_3983">
            <rect width="20" height="20" fill="white" />
        </clipPath>
    </defs>
</svg>