<svg viewBox="0 0 20 20" fill="none" xmlns="http://www.w3.org/2000/svg">
    <path
        d="M18.1595 2.51025H1.84051C0.825664 2.51025 0 3.33588 0 4.35201C0 5.36686 0.825664 6.19252 1.84051 6.19252H18.1595C19.1743 6.19252 20 5.36686 20 4.35201C20 3.33588 19.1743 2.51025 18.1595 2.51025Z"
        fill="currentColor" />
    <path
        d="M18.1595 8.15869H1.84051C0.825664 8.15869 0 8.98432 0 10.0004C0 11.0153 0.825664 11.841 1.84051 11.841H18.1595C19.1743 11.841 20 11.0153 20 10.0004C20 8.98432 19.1743 8.15869 18.1595 8.15869Z"
        fill="currentColor" />
    <path
        d="M18.1595 13.8074H1.84051C0.825664 13.8074 0 14.633 0 15.6491C0 16.664 0.825664 17.4896 1.84051 17.4896H18.1595C19.1743 17.4896 20 16.664 20 15.6491C20 14.633 19.1743 13.8074 18.1595 13.8074Z"
        fill="currentColor" />
</svg>