<svg  viewBox="0 0 20 20" fill="none" xmlns="http://www.w3.org/2000/svg">
    <path
        d="M3.93872 5.37866C5.1939 5.37866 6.21143 4.36114 6.21143 3.10596C6.21143 1.85078 5.1939 0.833252 3.93872 0.833252C2.68354 0.833252 1.66602 1.85078 1.66602 3.10596C1.66602 4.36114 2.68354 5.37866 3.93872 5.37866Z"
        fill="currentColor" />
    <path
        d="M9.99927 5.37866C11.2545 5.37866 12.272 4.36114 12.272 3.10596C12.272 1.85078 11.2545 0.833252 9.99927 0.833252C8.74409 0.833252 7.72656 1.85078 7.72656 3.10596C7.72656 4.36114 8.74409 5.37866 9.99927 5.37866Z"
        fill="currentColor" />
    <path
        d="M16.0598 5.37866C17.315 5.37866 18.3325 4.36114 18.3325 3.10596C18.3325 1.85078 17.315 0.833252 16.0598 0.833252C14.8046 0.833252 13.7871 1.85078 13.7871 3.10596C13.7871 4.36114 14.8046 5.37866 16.0598 5.37866Z"
        fill="currentColor" />
    <path
        d="M18.3327 17.4999C18.3327 18.333 17.6504 19.0151 16.8175 19.0151H3.18123C2.34828 19.0151 1.66602 18.333 1.66602 17.4999V8.40903C1.66602 7.57608 2.34828 6.89404 3.18123 6.89404H16.8175C17.6504 6.89404 18.3327 7.57608 18.3327 8.40903V17.4999Z"
        fill="currentColor" />
</svg>