<svg  viewBox="0 0 20 20" fill="none" xmlns="http://www.w3.org/2000/svg">
    <g clip-path="url(#clip0_491_3977)">
        <path
            d="M9.16731 4.99992C9.16731 5.824 8.92298 6.62958 8.46506 7.31483C8.00723 8 7.35648 8.53408 6.59515 8.84942C5.83381 9.16475 4.99603 9.24733 4.18777 9.0865C3.37952 8.92575 2.63709 8.52892 2.05437 7.94617C1.47166 7.3635 1.07482 6.62108 0.914049 5.81283C0.753274 5.0045 0.835791 4.16677 1.15115 3.40541C1.46652 2.64404 2.00057 1.9933 2.68577 1.53546C3.37098 1.07763 4.17657 0.833252 5.00065 0.833252C6.10573 0.833252 7.16556 1.27224 7.9469 2.05364C8.72831 2.83504 9.16731 3.89485 9.16731 4.99992ZM15.0006 9.16658C15.8247 9.16658 16.6303 8.92225 17.3156 8.46433C18.0007 8.0065 18.5348 7.35575 18.8501 6.59442C19.1655 5.83308 19.2481 4.9953 19.0872 4.18704C18.9265 3.37879 18.5296 2.63636 17.9469 2.05364C17.3642 1.47093 16.6218 1.07409 15.8136 0.913318C15.0052 0.752544 14.1675 0.83506 13.4061 1.15042C12.6448 1.46579 11.9941 1.99984 11.5362 2.68504C11.0783 3.37025 10.834 4.17583 10.834 4.99992C10.834 6.105 11.273 7.16483 12.0544 7.94617C12.8358 8.72758 13.8956 9.16658 15.0006 9.16658ZM5.00065 10.8332C4.17657 10.8332 3.37098 11.0776 2.68577 11.5355C2.00057 11.9933 1.46652 12.6441 1.15115 13.4054C0.835791 14.1667 0.753274 15.0045 0.914049 15.8128C1.07482 16.6211 1.47166 17.3635 2.05437 17.9462C2.63709 18.5289 3.37952 18.9257 4.18777 19.0865C4.99603 19.2473 5.83381 19.1647 6.59515 18.8494C7.35648 18.5341 8.00723 18 8.46506 17.3148C8.92298 16.6296 9.16731 15.824 9.16731 14.9999C9.16731 13.8948 8.72831 12.8351 7.9469 12.0537C7.16556 11.2722 6.10573 10.8332 5.00065 10.8332ZM15.0006 10.8332C14.1766 10.8332 13.371 11.0776 12.6858 11.5355C12.0006 11.9933 11.4665 12.6441 11.1511 13.4054C10.8358 14.1667 10.7532 15.0045 10.9141 15.8128C11.0748 16.6211 11.4716 17.3635 12.0544 17.9462C12.6371 18.5289 13.3795 18.9257 14.1877 19.0865C14.9961 19.2473 15.8338 19.1647 16.5951 18.8494C17.3566 18.5341 18.0072 18 18.4651 17.3148C18.923 16.6296 19.1673 15.824 19.1673 14.9999C19.1673 13.8948 18.7283 12.8351 17.9469 12.0537C17.1656 11.2722 16.1057 10.8332 15.0006 10.8332Z"
            fill="currentColor" />
    </g>
    <defs>
        <clipPath id="clip0_491_3977">
            <rect width="20" height="20" fill="white" />
        </clipPath>
    </defs>
</svg>