<svg  viewBox="0 0 20 20" fill="none" xmlns="http://www.w3.org/2000/svg">
    <path
        d="M2.16884 1.85753H4.07857C4.81573 1.85753 5.41539 2.45719 5.41539 3.19434V11.9791C5.41539 12.7163 4.81573 13.3159 4.07857 13.3159H2.16884C1.43169 13.3159 0.832031 12.7163 0.832031 11.9791V3.19434C0.832031 2.45719 1.43169 1.85753 2.16884 1.85753Z"
        fill="currentColor" />
    <path
        d="M10.5947 18.854C9.83077 18.854 9.44882 18.4721 9.44882 16.5623C9.44882 14.7473 7.69111 13.2868 6.56055 12.5343V3.07122C7.78354 2.50518 10.2318 1.66642 14.0322 1.66642H15.2544C16.744 1.66642 18.0121 2.73587 18.2641 4.20255L19.1197 9.16785C19.4405 11.0394 18.0044 12.7429 16.11 12.7429H12.5044C12.5044 12.7429 13.0773 13.8887 13.0773 15.7984C13.0773 18.0901 11.3586 18.854 10.5947 18.854Z"
        fill="currentColor" />
</svg>