<svg  viewBox="0 0 20 20" fill="none" xmlns="http://www.w3.org/2000/svg">
    <g clip-path="url(#clip0_491_3980)">
        <path
            d="M2.81702 4.48766V3.83252H0V4.48766H1.08094V15.5122H0V16.1673H2.81702V15.5122H1.73608V4.48766H2.81702Z"
            fill="currentColor" />
        <path
            d="M3.21725 13.5008L6.51429 6.05528C6.74416 5.54186 7.1629 5.23096 7.7306 5.23096H7.85221C8.41955 5.23096 8.82507 5.5418 9.0547 6.05528L12.3519 13.5008C12.4194 13.6494 12.4601 13.7845 12.4601 13.9197C12.4601 14.4737 12.0276 14.9196 11.4736 14.9196C10.9871 14.9196 10.6628 14.6359 10.4736 14.2034L9.83862 12.7171H5.67668L5.01455 14.2711C4.83884 14.6764 4.4876 14.9196 4.05515 14.9196C3.51445 14.9196 3.0957 14.4872 3.0957 13.9467C3.0957 13.798 3.14969 13.6494 3.21725 13.5008ZM9.06834 10.8793L7.75753 7.7579L6.44684 10.8793H9.06834Z"
            fill="currentColor" />
        <path
            d="M13.4453 12.7576V12.7305C13.4453 11.1496 14.648 10.4199 16.3641 10.4199C17.0938 10.4199 17.6209 10.5415 18.1344 10.7172V10.5956C18.1344 9.74421 17.6073 9.27137 16.5803 9.27137C16.0128 9.27137 15.5534 9.3524 15.1615 9.47407C15.04 9.51458 14.9588 9.52805 14.8641 9.52805C14.3913 9.52805 14.013 9.16323 14.013 8.69032C14.013 8.32544 14.2426 8.01466 14.5668 7.893C15.2154 7.64978 15.9182 7.51465 16.8776 7.51465C17.9991 7.51465 18.8099 7.8119 19.3235 8.32538C19.8639 8.86585 20.1071 9.66318 20.1071 10.6361V13.9331C20.1071 14.4873 19.6612 14.9196 19.1072 14.9196C18.5126 14.9196 18.1208 14.5007 18.1208 14.0683V14.0547C17.6208 14.6087 16.9315 14.9736 15.9317 14.9736C14.5668 14.9737 13.4453 14.1901 13.4453 12.7576ZM18.1612 12.2846V11.9198C17.8099 11.7577 17.3505 11.6495 16.8506 11.6495C15.9721 11.6495 15.4317 12.0009 15.4317 12.6494V12.6765C15.4317 13.2305 15.8912 13.5548 16.5532 13.5548C17.5126 13.5549 18.1612 13.0279 18.1612 12.2846Z"
            fill="currentColor" />
    </g>
    <defs>
        <clipPath id="clip0_491_3980">
            <rect width="20" height="20" fill="white" />
        </clipPath>
    </defs>
</svg>