<svg  viewBox="0 0 20 20" fill="none" xmlns="http://www.w3.org/2000/svg">
    <path
        d="M2.16884 18.663H4.07857C4.81573 18.663 5.41539 18.0633 5.41539 17.3262V8.5414C5.41539 7.80425 4.81573 7.20459 4.07857 7.20459H2.16884C1.43169 7.20459 0.832031 7.80425 0.832031 8.5414V17.3262C0.832031 18.0633 1.43169 18.663 2.16884 18.663Z"
        fill="currentColor" />
    <path
        d="M10.5947 1.6665C9.83077 1.6665 9.44882 2.04845 9.44882 3.95818C9.44882 5.77319 7.69111 7.23375 6.56055 7.98619V17.4493C7.78354 18.0153 10.2318 18.8541 14.0322 18.8541H15.2544C16.744 18.8541 18.0121 17.7846 18.2641 16.318L19.1197 11.3527C19.4405 9.48112 18.0044 7.77764 16.11 7.77764H12.5044C12.5044 7.77764 13.0773 6.63181 13.0773 4.72207C13.0773 2.4304 11.3586 1.6665 10.5947 1.6665Z"
        fill="currentColor" />
</svg>