<svg  viewBox="0 0 20 20" fill="none" xmlns="http://www.w3.org/2000/svg">
    <g clip-path="url(#clip0_491_3974)">
        <path
            d="M5.34842 7.74018L9.31636 0.866282C9.37636 0.774279 9.45436 0.69828 9.54435 0.638283C9.92034 0.386285 10.4283 0.488285 10.6803 0.866282L14.6483 7.74018C14.7183 7.85817 14.7543 7.99417 14.7543 8.13216C14.7543 8.56817 14.4023 8.92015 13.9663 8.92015H6.02841C5.89041 8.92015 5.75442 8.88415 5.63641 8.81416C5.25841 8.59616 5.13043 8.11617 5.34842 7.74018Z"
            fill="currentColor" />
        <path
            d="M19.3776 12.546V18.3379C19.3776 18.7739 19.0236 19.1259 18.5896 19.1259H12.7977C12.3637 19.1259 12.0117 18.7739 12.0117 18.3379V12.546C12.0117 12.112 12.3637 11.76 12.7977 11.76H18.5896C19.0236 11.76 19.3776 12.112 19.3776 12.546Z"
            fill="currentColor" />
        <path
            d="M8.73893 15.442C8.73893 17.6819 6.92496 19.4979 4.68699 19.4999C2.44502 19.5019 0.627052 17.6879 0.623049 15.446C0.621047 13.206 2.43502 11.388 4.67699 11.384C6.91896 11.384 8.73693 13.2 8.73893 15.442Z"
            fill="currentColor" />
    </g>
    <defs>
        <clipPath id="clip0_491_3974">
            <rect width="20" height="20" fill="white" />
        </clipPath>
    </defs>
</svg>