<svg  viewBox="0 0 20 20" fill="none" xmlns="http://www.w3.org/2000/svg">
    <path fill-rule="evenodd" clip-rule="evenodd"
        d="M15.9748 3.10283C16.2537 2.67611 16.1374 2.1018 15.715 1.82007C15.2925 1.53833 14.7239 1.65585 14.445 2.08256L14.0288 2.71939C13.7499 3.1461 13.8662 3.72042 14.2887 4.00215C14.7111 4.2839 15.2797 4.16637 15.5586 3.73966L15.9748 3.10283ZM15.644 5.88622C15.3909 5.44339 15.5412 4.87715 15.9795 4.62149L16.8573 4.10957C17.2957 3.85391 17.8563 4.00563 18.1094 4.44846C18.3625 4.89128 18.2123 5.45752 17.7739 5.71319L16.8961 6.2251C16.4578 6.48077 15.8972 6.32904 15.644 5.88622ZM11.8123 13.7322L15.8602 12.8148C16.4636 12.678 16.7625 11.9894 16.4534 11.4484L11.284 2.40438C10.9748 1.86344 10.235 1.78063 9.81599 2.24007L1.49341 11.3676C0.75456 12.1779 0.622783 13.3792 1.16808 14.3332C1.70352 15.27 2.76975 15.7549 3.81559 15.5438C3.89931 15.7844 4.0062 16.0206 4.13703 16.2495C5.27602 18.2423 7.79861 18.925 9.77144 17.7746C11.2263 16.926 11.9758 15.3175 11.8123 13.7322ZM10.0009 14.1427C10.0083 14.9502 9.59656 15.7383 8.85486 16.1709C7.75882 16.8101 6.35738 16.4308 5.72461 15.3237C5.68898 15.2613 5.65654 15.198 5.62726 15.1339L10.0009 14.1427ZM16.5817 8.01382C16.5513 7.50341 16.9364 7.06481 17.4417 7.03417L18.1958 6.98845C18.7011 6.95781 19.1353 7.34675 19.1656 7.85716C19.196 8.36757 18.8109 8.80615 18.3057 8.83679L17.5515 8.88253C17.0462 8.91317 16.612 8.52423 16.5817 8.01382Z"
        fill="currentColor" />
</svg>