<svg width="16" height="16" viewBox="0 0 16 16" fill="none" xmlns="http://www.w3.org/2000/svg">
<path d="M14.5276 2.00879H1.47241C0.660531 2.00879 0 2.66929 0 3.4822C0 4.29407 0.660531 4.9546 1.47241 4.9546H14.5276C15.3395 4.9546 16 4.29407 16 3.4822C16 2.66929 15.3395 2.00879 14.5276 2.00879Z" fill="#7A8882"/>
<path d="M14.5276 6.52734H1.47241C0.660531 6.52734 0 7.18784 0 8.00075C0 8.81262 0.660531 9.47316 1.47241 9.47316H14.5276C15.3395 9.47316 16 8.81262 16 8.00075C16 7.18784 15.3395 6.52734 14.5276 6.52734Z" fill="#7A8882"/>
<path d="M14.5276 11.0459H1.47241C0.660531 11.0459 0 11.7064 0 12.5193C0 13.3312 0.660531 13.9917 1.47241 13.9917H14.5276C15.3395 13.9917 16 13.3312 16 12.5193C16 11.7064 15.3395 11.0459 14.5276 11.0459Z" fill="#7A8882"/>
</svg>
