<svg width="24" height="24" viewBox="0 0 24 24" fill="none" xmlns="http://www.w3.org/2000/svg">
<path d="M2.02312 20.9678L22.0453 12.7103C22.1799 12.6524 22.2946 12.5562 22.3751 12.4338C22.4557 12.3114 22.4986 12.1681 22.4986 12.0215C22.4986 11.875 22.4557 11.7316 22.3751 11.6092C22.2946 11.4868 22.1799 11.3906 22.0453 11.3327L2.02312 3.02783C1.77562 2.9219 1.5 3.13377 1.5 3.40283V8.7119C1.50009 8.79909 1.53056 8.88352 1.58616 8.95068C1.64177 9.01784 1.71904 9.06352 1.80469 9.07987L11.5 12.0001L1.80516 14.9599C1.71935 14.9761 1.64191 15.0218 1.5862 15.0891C1.53049 15.1564 1.5 15.241 1.5 15.3283V20.6397C1.50068 20.7012 1.51678 20.7615 1.54683 20.8151C1.57688 20.8687 1.61991 20.9139 1.67198 20.9466C1.72405 20.9792 1.78349 20.9983 1.84484 21.002C1.90619 21.0057 1.9675 20.994 2.02312 20.9678Z" stroke="#697D67" stroke-width="1.5" stroke-linecap="round" stroke-linejoin="round"/>
</svg>
